<?xml version="1.0" encoding="UTF-8" standalone="no"?>
<svg
   xmlns:dc="http://purl.org/dc/elements/1.1/"
   xmlns:cc="http://creativecommons.org/ns#"
   xmlns:rdf="http://www.w3.org/1999/02/22-rdf-syntax-ns#"
   xmlns:svg="http://www.w3.org/2000/svg"
   xmlns="http://www.w3.org/2000/svg"
   xmlns:xlink="http://www.w3.org/1999/xlink"
   xmlns:sodipodi="http://sodipodi.sourceforge.net/DTD/sodipodi-0.dtd"
   xmlns:inkscape="http://www.inkscape.org/namespaces/inkscape"
   version="1.1"
   id="svg2"
   width="170"
   height="170"
   viewBox="0 0 170 170"
   sodipodi:docname="icon_advene.svg"
   inkscape:version="0.92.2 (5c3e80d, 2017-08-06)">
  <metadata
     id="metadata8">
    <rdf:RDF>
      <cc:Work
         rdf:about="">
        <dc:format>image/svg+xml</dc:format>
        <dc:type
           rdf:resource="http://purl.org/dc/dcmitype/StillImage" />
        <dc:title></dc:title>
      </cc:Work>
    </rdf:RDF>
  </metadata>
  <defs
     id="defs6">
    <linearGradient
       inkscape:collect="always"
       id="linearGradient4520">
      <stop
         id="stop4531"
         offset="0"
         style="stop-color:#fbbd03;stop-opacity:1" />
      <stop
         id="stop4529"
         offset="1"
         style="stop-color:#e42b16;stop-opacity:0.98823529" />
    </linearGradient>
    <linearGradient
       inkscape:collect="always"
       xlink:href="#linearGradient4520"
       id="linearGradient4534"
       gradientUnits="userSpaceOnUse"
       x1="154"
       y1="84"
       x2="170"
       y2="84"
       gradientTransform="translate(0,0)" />
    <linearGradient
       inkscape:collect="always"
       xlink:href="#linearGradient4520"
       id="linearGradient4548"
       x1="28"
       y1="84"
       x2="63"
       y2="84"
       gradientUnits="userSpaceOnUse"
       gradientTransform="translate(-63,-167)" />
  </defs>
  <sodipodi:namedview
     pagecolor="#ffffff"
     bordercolor="#666666"
     borderopacity="1"
     objecttolerance="10"
     gridtolerance="10"
     guidetolerance="10"
     inkscape:pageopacity="0"
     inkscape:pageshadow="2"
     inkscape:window-width="1680"
     inkscape:window-height="1015"
     id="namedview4"
     showgrid="false"
     inkscape:zoom="2.7656249"
     inkscape:cx="91.045851"
     inkscape:cy="78.283934"
     inkscape:window-x="0"
     inkscape:window-y="27"
     inkscape:window-maximized="0"
     inkscape:current-layer="svg2"
     fit-margin-top="0"
     fit-margin-left="0"
     fit-margin-right="0"
     fit-margin-bottom="0" />
  <rect
     style="color:#000000;display:inline;overflow:visible;visibility:visible;fill:url(#linearGradient4534);fill-opacity:1;fill-rule:evenodd;stroke:none;stroke-width:1;stroke-linecap:butt;stroke-linejoin:miter;stroke-miterlimit:4;stroke-dasharray:none;stroke-dashoffset:0;stroke-opacity:1;marker:none;enable-background:accumulate"
     id="rect4514"
     width="30"
     height="83"
     x="142"
     y="42" />
  <rect
     style="color:#000000;display:inline;overflow:visible;visibility:visible;fill:url(#linearGradient4548);fill-opacity:1;fill-rule:evenodd;stroke:none;stroke-width:1;stroke-linecap:butt;stroke-linejoin:miter;stroke-miterlimit:4;stroke-dasharray:none;stroke-dashoffset:0;stroke-opacity:1;marker:none;enable-background:accumulate"
     id="rect4512"
     width="65"
     height="83"
     x="-62"
     y="-124"
     transform="scale(-1)" />
  <path
     style="fill:#e2001a;fill-opacity:1;stroke-width:0;"
     d="m 30.686067,167 c 0.01067,-1.28334 0.876079,-14.39035 1.923132,-29.12671 2.761822,-38.870268 6.652172,-59.34765 14.287942,-75.206623 5.35974,-11.131796 21.1871,-27.021063 38.29195,-38.441705 C 97.144751,16.24235 128.15977,0 131.44703,0 c 3.98552,0 16.43313,45.239739 19.37984,70.434303 2.65989,22.742223 -1.08116,46.755417 -13.07079,83.899027 l -4.84186,15 h -18.45711 c -10.15141,0 -18.457109,-0.48081 -18.457109,-1.06848 0,-0.58767 1.48741,-6.13767 3.305355,-12.33333 1.817954,-6.19567 3.317954,-12.03179 3.333334,-12.96915 0.0217,-1.31989 -4.107049,-1.62063 -18.305359,-1.33333 L 66.000001,142 l 0.37509,8.66666 c 0.2063,4.76667 0.70904,10.91667 1.1172,13.66667 l 0.74211,5 h -18.78387 c -17.007896,0 -18.782029,-0.22061 -18.764464,-2.33333 z m 82.449823,-55.33334 c 5.51321,-18.649504 4.55095,-26.442489 0.15053,-43.516838 -0.9695,-3.761838 -3.88431,-14.884821 -4.98293,-15.463776 -12.67295,3.301058 -30.827949,17.071222 -35.475419,26.432975 -3.95699,8.370175 -7.49474,24.808539 -7.49474,34.824759 v 7.38955 h 22.47244 22.472439 z"
     id="path4510"
     inkscape:connector-curvature="0"
     sodipodi:nodetypes="ssssssscssscscsscssssccscccs" />
</svg>
