/* XPM */
static char *icon_advene16[] = {
/* columns rows colors chars-per-pixel */
"16 16 119 2",
"   c #BF4525",
".  c #C1001F",
"X  c #C2101F",
"o  c #C31F1F",
"O  c #C20620",
"+  c #C21021",
"@  c #C32124",
"#  c #C32826",
"$  c #C32A26",
"%  c #C42B27",
"&  c #C53324",
"*  c #C5362B",
"=  c #C5382C",
"-  c #C63E2B",
";  c #C63C2D",
":  c #C7411F",
">  c #C7461F",
",  c #C94F1E",
"<  c #CA521E",
"1  c #CA541E",
"2  c #CB571E",
"3  c #CB591E",
"4  c #CB5A1E",
"5  c #C24223",
"6  c #C04727",
"7  c #C04827",
"8  c #C24928",
"9  c #C34928",
"0  c #C84633",
"q  c #C94C36",
"w  c #C94D37",
"e  c #C95139",
"r  c #CB593B",
"t  c #CD601E",
"y  c #CD621E",
"u  c #CD631E",
"i  c #CE641E",
"p  c #CE661E",
"a  c #CF671E",
"s  c #D06C1D",
"d  c #D06D1D",
"f  c #D1701D",
"g  c #D4791D",
"h  c #D47B1C",
"j  c #D3773E",
"k  c #CC5C41",
"l  c #CC5F43",
"z  c #CE6448",
"x  c #CB6C42",
"c  c #CF684B",
"v  c #CF694B",
"b  c #CF6A4B",
"n  c #D16F51",
"m  c #D37A5B",
"M  c #D98B1B",
"N  c #DB901A",
"B  c #DB911A",
"V  c #DD9519",
"C  c #DD9719",
"Z  c #DE9819",
"A  c #DE9A18",
"S  c #DF9C18",
"D  c #D6823D",
"F  c #E4AA14",
"G  c #E5AD13",
"H  c #D88841",
"J  c #DD9743",
"K  c #D78767",
"L  c #D8896A",
"P  c #DA9171",
"I  c #DB9576",
"U  c #DC9678",
"Y  c #DC9778",
"T  c #DE9D7F",
"R  c #E3A747",
"E  c #E9B94A",
"W  c #F0C94D",
"Q  c #DF9F81",
"!  c #DFA183",
"~  c #DFA184",
"^  c #E0A285",
"/  c #E0A286",
"(  c #E2AB8F",
")  c #E6B69C",
"_  c #E7B99F",
"`  c #EAC4AE",
"'  c #E7CDB8",
"]  c #EBC6B0",
"[  c #EDCAB5",
"{  c #F3DAB8",
"}  c #F2D8BF",
"|  c #EFD2C0",
" . c #F4DDC3",
".. c #F5DFC2",
"X. c #F3DCCD",
"o. c #F4DFD2",
"O. c #F5E2D6",
"+. c #F5E3D7",
"@. c #F7E8DD",
"#. c #F7E8DE",
"$. c #F9ECE4",
"%. c #FAEFE8",
"&. c #F6F2EF",
"*. c #FAF2EB",
"=. c gray96",
"-. c #FBF3F1",
";. c #FDF9F5",
":. c #FDF9F6",
">. c #FDFAF6",
",. c #FDFAF7",
"<. c #FEFAF6",
"1. c #FEFBF6",
"2. c #FEFCF7",
"3. c #FFFDF6",
"4. c #F9F9F9",
"5. c gray98",
"6. c #FEFCFB",
"7. c #FFFEF8",
"8. c gray100",
/* pixels */
"5.8.8.8.8.8.8.8.8.8.O.L b 8.8.8.",
"5.8.8.8.8.8.8.8.*.I % . . X.8.8.",
"5.8.8.8.8.8.8.] 0 . . . O ~ 8.8.",
"&.1.1.1.7.1.Q O . . . . . z 1.1.",
"x D R E W D . . . . . . . & J j ",
"5 a B G M O . . ; P e . . . d < ",
"8 d C F : . . l $.8.) . . . a 4 ",
"8 d C C X . $ O.8.8.o.@ . . y 4 ",
"7 d C g . . n 8.8.8.*.* . . y 4 ",
"7 d S y . . ( 8.8.8.O.# . . a 4 ",
"7 d C , . . [ 8.8.8.` . . . f 2 ",
"6 d B : . . m ! T ! l . . o h < ",
"'  .{ - . . . . . . . . . r ..} ",
"=.8.-.* . . b K K z . . . I 8.8.",
"=.8.@.+ . . _ 8.8.I . . . } 8.8.",
"=.8.@.. . . ~ 8.5.w . . q 1.8.8."
};
