/* XPM */
static char *icon_advene32[] = {
/* columns rows colors chars-per-pixel */
"32 32 79 1",
"  c #E2001A",
". c #E41316",
"X c #E21218",
"o c #E51C15",
"O c #E30F28",
"+ c #E51F36",
"@ c #E62215",
"# c #E72A13",
"$ c #E72C13",
"% c #E73211",
"& c #E53E14",
"* c #E83433",
"= c #E83C31",
"- c #E72F44",
"; c #E93F53",
": c #E9440D",
"> c #EB4B0E",
", c #E64513",
"< c #EB510D",
"1 c #EB5F08",
"2 c #EC5B0B",
"3 c #E9630B",
"4 c #E9610C",
"5 c #EC6806",
"6 c #ED7104",
"7 c #ED7A02",
"8 c #F07009",
"9 c #F17509",
"0 c #F07608",
"q c #F07A06",
"w c #E94D52",
"e c #EC5C4E",
"r c #EB4F61",
"t c #EC5F6F",
"y c #EB6E4F",
"u c #EC734E",
"i c #EE6F7E",
"p c #F07F8C",
"a c #F08B00",
"s c #F08D00",
"d c #F38F03",
"f c #F59604",
"g c #F39900",
"h c #F5A201",
"j c #F5A400",
"k c #F7AE00",
"l c #F8B400",
"z c #F9B900",
"x c #F3A83F",
"c c #F4A93F",
"v c #F6B23F",
"b c #F7BB3F",
"n c #EE8948",
"m c #EF8A48",
"M c #F28749",
"N c #F19B41",
"B c #F9C23F",
"V c #FAC63F",
"C c #FBCA3F",
"Z c #FBCD3F",
"A c #F7C57F",
"S c #F7C67F",
"D c #F9CC7F",
"F c #F0888B",
"G c #F28F9A",
"H c #F29E89",
"J c #F49FA9",
"K c #F2A289",
"L c #F4B085",
"P c #F4B185",
"I c #F6BC80",
"U c #F5AAB2",
"Y c #F5AFB7",
"T c #F7BFC5",
"R c #F9CFD4",
"E c #FAD4D8",
"W c #FBDFE2",
"Q c #FDEFF0",
"! c gray100",
/* pixels */
"!!!!!!!!!!!!!!!!!!!!!!!E;U!!!!!!",
"!!!!!!!!!!!!!!!!!!!!!Tr  t!!!!!!",
"!!!!!!!!!!!!!!!!!!!T;     !!!!!!",
"!!!!!!!!!!!!!!!!!Wt       Y!!!!!",
"!!!!!!!!!!!!!!!!GO        t!!!!!",
"!!!!!!!!!!!!!!W;          +!!!!!",
"!!!!!!!!!!!!!TO            R!!!!",
"!!!!!!!!!!!!J              G!!!!",
"wumNxvbBVCZM               =cNmy",
"X,37agjklz0                .s74&",
"X,37agjklf                  s74&",
"X,37agjkl@       ;YQG       574&",
"X,37agjk8      OY!!!QO      174&",
"X,37agjk#     OR!!!!!t      :74&",
"X,37agjh      F!!!!!!J      :74&",
"X,37agj0     +!!!!!!!T      :74&",
"X,37agj>     i!!!!!!!Q      :74&",
"X,37agj#     R!!!!!!!!      :74&",
"X,37agj      !!!!!!!!R      :74&",
"X,47agd     ;!!!!!!!!Y      :74&",
"X,37ag7     r!!!!!!!!i      574&",
"X,37ag2     p!!!!!!!!-      674&",
"X,37ag<     p!!!!!!!W       s74&",
"X,37ag%                    os74&",
"FKLISD*                    eSILH",
"!!!!!!-                    Y!!!!",
"!!!!!!                     Q!!!!",
"!!!!!!      -TTTTTT-      -!!!!!",
"!!!!!!      ;!!!!!Q       p!!!!!",
"!!!!!W      ;!!!!!Y       R!!!!!",
"!!!!!T       !!!!!t      +!!!!!!",
"!!!!!T       !!!!!O      p!!!!!!"
};
