<?xml version="1.0" encoding="UTF-8" standalone="no"?>
<!-- Generator: Adobe Illustrator 13.0.0, SVG Export Plug-In . SVG Version: 6.00 Build 14948)  -->

<svg
   xmlns:dc="http://purl.org/dc/elements/1.1/"
   xmlns:cc="http://creativecommons.org/ns#"
   xmlns:rdf="http://www.w3.org/1999/02/22-rdf-syntax-ns#"
   xmlns:svg="http://www.w3.org/2000/svg"
   xmlns="http://www.w3.org/2000/svg"
   xmlns:xlink="http://www.w3.org/1999/xlink"
   xmlns:sodipodi="http://sodipodi.sourceforge.net/DTD/sodipodi-0.dtd"
   xmlns:inkscape="http://www.inkscape.org/namespaces/inkscape"
   version="1.0"
   id="Calque_1"
   x="0px"
   y="0px"
   width="460.62991"
   height="168.30708"
   viewBox="0 0 175.313 64.12"
   enable-background="new 0 0 175.313 64.12"
   xml:space="preserve"
   sodipodi:version="0.32"
   inkscape:version="0.92.4 (5da689c313, 2019-01-14)"
   sodipodi:docname="logo_advene.svg"
   inkscape:output_extension="org.inkscape.output.svg.inkscape"
   inkscape:export-filename="/home/oaubert/src/advene/share/pixmaps/logo_advene.png"
   inkscape:export-xdpi="66.690002"
   inkscape:export-ydpi="66.690002"><metadata
   id="metadata233"><rdf:RDF><cc:Work
       rdf:about=""><dc:format>image/svg+xml</dc:format><dc:type
         rdf:resource="http://purl.org/dc/dcmitype/StillImage" /></cc:Work></rdf:RDF></metadata><defs
   id="defs231"><linearGradient
     inkscape:collect="always"
     id="linearGradient978"><stop
       style="stop-color:#e2001a;stop-opacity:1;"
       offset="0"
       id="stop974" /><stop
       style="stop-color:#e2001a;stop-opacity:0;"
       offset="1"
       id="stop976" /></linearGradient><inkscape:perspective
     sodipodi:type="inkscape:persp3d"
     inkscape:vp_x="0 : 32.060001 : 1"
     inkscape:vp_y="0 : 1000 : 0"
     inkscape:vp_z="175.313 : 32.060001 : 1"
     inkscape:persp3d-origin="87.656502 : 21.373334 : 1"
     id="perspective235" /><linearGradient
     inkscape:collect="always"
     xlink:href="#linearGradient978"
     id="linearGradient980"
     x1="2.2727543"
     y1="46.828955"
     x2="173.52491"
     y2="46.828955"
     gradientUnits="userSpaceOnUse" /><linearGradient
     inkscape:collect="always"
     xlink:href="#linearGradient978"
     id="linearGradient982"
     x1="18.96818"
     y1="8.1064242"
     x2="156.30925"
     y2="8.1064242"
     gradientUnits="userSpaceOnUse" /><linearGradient
     inkscape:collect="always"
     xlink:href="#linearGradient978"
     id="linearGradient984"
     x1="0.54158565"
     y1="28.161324"
     x2="175.31318"
     y2="28.161324"
     gradientUnits="userSpaceOnUse" /></defs><sodipodi:namedview
   inkscape:window-height="1015"
   inkscape:window-width="1680"
   inkscape:pageshadow="2"
   inkscape:pageopacity="0.0"
   guidetolerance="10.0"
   gridtolerance="10.0"
   objecttolerance="10.0"
   borderopacity="1.0"
   bordercolor="#666666"
   pagecolor="#ffffff"
   id="base"
   showgrid="false"
   inkscape:document-units="cm"
   units="cm"
   inkscape:zoom="1.5486586"
   inkscape:cx="166.20428"
   inkscape:cy="70.774437"
   inkscape:window-x="0"
   inkscape:window-y="26"
   inkscape:current-layer="Calque_1"
   inkscape:window-maximized="0" />
<g
   id="g3">
	<g
   id="g5">
		<g
   id="g7"
   style="stroke:none;stroke-opacity:1">
			<linearGradient
   id="SVGID_1_"
   gradientUnits="userSpaceOnUse"
   x1="0.67430001"
   y1="28.158199"
   x2="175.14011"
   y2="28.158199"
   style="stroke:url(#linearGradient984)">
				<stop
   offset="0"
   style="stop-color:#FDC300;stroke:url(#linearGradient984)"
   id="stop10" />
				<stop
   offset="0.0453"
   style="stop-color:#FDC500;stroke:url(#linearGradient984)"
   id="stop12" />
				<stop
   offset="0.1119"
   style="stop-color:#FDC91F;stroke:url(#linearGradient984)"
   id="stop14" />
				<stop
   offset="0.1918"
   style="stop-color:#FED14E;stroke:url(#linearGradient984)"
   id="stop16" />
				<stop
   offset="0.282"
   style="stop-color:#FFDB7E;stroke:url(#linearGradient984)"
   id="stop18" />
				<stop
   offset="0.3807"
   style="stop-color:#FFE9B4;stroke:url(#linearGradient984)"
   id="stop20" />
				<stop
   offset="0.4851"
   style="stop-color:#FFFAED;stroke:url(#linearGradient984)"
   id="stop22" />
				<stop
   offset="0.5167"
   style="stop-color:#FFFFFF;stroke:url(#linearGradient984)"
   id="stop24" />
				<stop
   offset="0.579"
   style="stop-color:#FFF5DD;stroke:url(#linearGradient984)"
   id="stop26" />
				<stop
   offset="0.6952"
   style="stop-color:#FFE49E;stroke:url(#linearGradient984)"
   id="stop28" />
				<stop
   offset="0.7994"
   style="stop-color:#FFD563;stroke:url(#linearGradient984)"
   id="stop30" />
				<stop
   offset="0.8875"
   style="stop-color:#FECB2F;stroke:url(#linearGradient984)"
   id="stop32" />
				<stop
   offset="0.9562"
   style="stop-color:#FDC600;stroke:url(#linearGradient984)"
   id="stop34" />
				<stop
   offset="0.997"
   style="stop-color:#FDC300;stroke:url(#linearGradient984)"
   id="stop36" />
			</linearGradient>
			<path
   d="M 21.987,0.13 C 9.218,17.62 1.685,37.233 0.674,56.187 C 58.829,51.666 116.985,47.144 175.14,42.623 C 171.626,32.869 164.092,21.586 153.827,10.37 C 109.88,6.956 65.934,3.543 21.987,0.13 z"
   id="path38"
   style="fill:#dadada;stroke:none;stroke-width:0.25;fill-opacity:1;stroke-opacity:1" />
		</g>
		<g
   id="g40">
			<g
   id="g42"
   transform="translate(-0.60600092,0.00300128)">
				<g
   id="g44"
   style="fill:#8a8a8a;fill-opacity:1">
					<path
   d="m 24.128,45.86 c -2.45,0.133 -4.9,0.264 -7.35,0.396 0.815,-2.107 1.692,-4.209 2.625,-6.303 -2.408,0.09 -4.815,0.18 -7.223,0.268 -0.314,2.109 -0.553,4.219 -0.716,6.32 C 9,46.675 6.536,46.808 4.072,46.94 3.728,46.96 7.48,31.202 13.121,23.954 19.951,14.618 35.212,9.536 35.029,9.566 34.924,9.563 33.536,19.072 31.35,27.51 28.883,35.913 24.102,45.845 24.128,45.86 Z M 21.571,35.452 c -0.003,-0.002 1.947,-3.309 2.875,-6.011 1.675,-4.971 1.217,-8.31 1.214,-8.316 0.008,0.009 -3.585,-0.087 -7.272,3.983 -3.744,4.079 -5.31,10.563 -5.254,10.555 2.812,-0.07 5.624,-0.141 8.437,-0.211 z"
   id="path46"
   style="fill:#8a8a8a;fill-opacity:1"
   inkscape:connector-curvature="0" />
				</g>
				<g
   id="g48"
   style="fill:#8a8a8a;fill-opacity:1">
					<path
   d="m 56.358,27.443 c -0.782,4.698 -2.532,8.722 -5.578,12.171 -2.917,3.332 -6.161,5.143 -9.805,5.34 -4.546,0.244 -9.092,0.488 -13.639,0.734 -0.124,-0.018 4.671,-11.912 6.481,-17.896 1.293,-6.042 3.53,-18.083 3.755,-18.058 3.771,0.188 7.543,0.375 11.314,0.563 3.019,0.153 5.009,1.87 6.412,5.115 1.466,3.361 1.848,7.334 1.06,12.031 z m -8.098,0.029 c 0.628,-3.034 0.814,-5.644 0.537,-7.861 -0.274,-2.216 -0.903,-3.346 -2.041,-3.382 -1.349,-0.041 -2.698,-0.082 -4.047,-0.123 -0.035,-0.001 -0.874,6.49 -2.155,12.306 -1.352,5.806 -3.521,10.616 -3.536,10.618 1.522,-0.055 3.044,-0.109 4.566,-0.166 1.305,-0.047 2.571,-1.213 3.857,-3.467 1.292,-2.255 2.192,-4.889 2.819,-7.925 z"
   id="path50"
   style="fill:#8a8a8a;fill-opacity:1"
   inkscape:connector-curvature="0" />
				</g>
				<g
   id="g52"
   style="fill:#8a8a8a;fill-opacity:1">
					<path
   d="m 83.292,11.973 c -5.059,9.907 -10.651,20.602 -15.609,31.543 -5.937,0.32 -11.874,0.639 -17.81,0.959 0.1,-0.027 7.125,-5.785 8.664,-16.734 1.178,-8.505 -1.306,-17.044 -1.191,-17.062 3.416,0.17 6.831,0.34 10.246,0.511 -1.968,7.924 -3.332,16.114 -4.03,24.266 3.608,-8.234 7.575,-16.278 11.481,-23.894 2.749,0.137 5.499,0.274 8.249,0.411 z"
   id="path54"
   style="fill:#8a8a8a;fill-opacity:1"
   inkscape:connector-curvature="0" />
				</g>
				<g
   id="g56"
   style="fill:#8a8a8a;fill-opacity:1">
					<path
   d="m 104.905,41.513 c -11.231,0.605 -22.462,1.209 -33.693,1.814 2.37,-5.248 4.87,-10.439 7.36,-15.513 2.506,-5.404 5.015,-10.682 7.384,-15.76 5.319,0.266 10.638,0.532 15.958,0.799 0.183,2.068 0.374,4.148 0.573,6.234 -3.523,-0.092 -7.048,-0.184 -10.572,-0.275 -0.93,1.708 -1.886,3.438 -2.861,5.187 3.954,0.03 7.908,0.061 11.862,0.092 0.179,2.091 0.368,4.184 0.565,6.27 -4.623,0.066 -9.246,0.132 -13.87,0.198 0.027,1.775 0.072,3.548 0.135,5.316 5.48,-0.176 10.959,-0.35 16.44,-0.525 0.234,2.067 0.474,4.126 0.719,6.163 z"
   id="path58"
   style="fill:#8a8a8a;fill-opacity:1"
   inkscape:connector-curvature="0" />
				</g>
				<g
   id="g60"
   style="fill:#8a8a8a;fill-opacity:1">
					<path
   d="m 170.752,37.97 c -11.231,0.604 -22.462,1.209 -33.693,1.813 1.377,-4.117 2.46,-8.227 3.144,-12.278 0.582,-4.315 0.726,-8.571 0.331,-12.719 5.319,0.266 10.639,0.533 15.958,0.799 1.348,1.675 2.633,3.347 3.853,5.011 -3.524,-0.092 -7.049,-0.184 -10.573,-0.276 -0.112,1.37 -0.299,2.751 -0.553,4.145 3.953,0.03 7.906,0.061 11.86,0.092 1.072,1.65 2.079,3.287 3.017,4.907 -4.623,0.066 -9.246,0.133 -13.869,0.199 0.627,1.398 1.22,2.785 1.776,4.16 5.48,-0.176 10.96,-0.35 16.439,-0.525 0.849,1.58 1.62,3.14 2.31,4.672 z"
   id="path62"
   style="fill:#8a8a8a;fill-opacity:1"
   inkscape:connector-curvature="0" />
				</g>
				<g
   id="g64"
   style="fill:#8a8a8a;fill-opacity:1">
					<path
   d="m 133.649,39.966 c -2.674,0.145 -5.348,0.289 -8.022,0.432 -0.668,-2.77 -2.079,-6.914 -4.122,-9.908 -2.043,-2.983 -4.571,-5.986 -6.892,-6.146 1.066,5.561 2.074,11.103 2.992,16.485 -3.209,0.174 -6.418,0.346 -9.627,0.52 -1.22,-9.252 -2.423,-18.907 -3.511,-28.32 0.035,0.002 0.069,0.004 0.104,0.005 2.974,0.151 8.448,1.094 11.27,2.511 3.133,1.606 8.452,5.155 10.963,7.947 0.502,-3.149 0.828,-6.256 0.946,-9.302 3.326,0.166 6.652,0.332 9.979,0.498 0.357,8.112 -1.279,16.672 -4.08,25.278 z"
   id="path66"
   style="fill:#8a8a8a;fill-opacity:1"
   inkscape:connector-curvature="0" />
				</g>
			</g>
			<g
   id="g68"
   style="stroke:none;stroke-opacity:1">
				<path
   d="M 24.675,6.472 C 22.846,6.367 21.017,6.261 19.188,6.155 C 20.049,4.803 20.941,3.461 21.863,2.131 C 23.627,2.256 25.391,2.382 27.155,2.507 C 26.3,3.818 25.474,5.14 24.675,6.472 z"
   id="path70"
   style="fill:#ffffff;stroke:none;stroke-width:0.25;stroke-opacity:1" />
				<path
   d="M 31.588,6.872 C 29.759,6.767 27.93,6.661 26.101,6.555 C 26.883,5.228 27.692,3.911 28.53,2.605 C 30.294,2.73 32.058,2.856 33.822,2.981 C 33.052,4.268 32.307,5.565 31.588,6.872 z"
   id="path72"
   style="fill:#ffffff;stroke:none;stroke-width:0.25;stroke-opacity:1" />
				<path
   d="M 38.501,7.272 C 36.672,7.167 34.844,7.061 33.015,6.955 C 33.717,5.654 34.445,4.361 35.198,3.079 C 36.962,3.204 38.725,3.329 40.489,3.455 C 39.802,4.718 39.14,5.991 38.501,7.272 z"
   id="path74"
   style="fill:#ffffff;stroke:none;stroke-width:0.25;stroke-opacity:1" />
				<path
   d="M 45.415,7.672 C 43.586,7.567 41.757,7.461 39.928,7.355 C 40.55,6.079 41.196,4.811 41.865,3.553 C 43.629,3.678 45.393,3.804 47.157,3.929 C 46.555,5.167 45.974,6.416 45.415,7.672 z"
   id="path76"
   style="fill:#ffffff;stroke:none;stroke-width:0.25;stroke-opacity:1" />
				<path
   d="M 52.328,8.072 C 50.5,7.966 48.671,7.86 46.842,7.754 C 47.384,6.503 47.948,5.26 48.532,4.026 C 50.296,4.151 52.059,4.277 53.823,4.402 C 53.306,5.617 52.808,6.841 52.328,8.072 z"
   id="path78"
   style="fill:#ffffff;stroke:none;stroke-width:0.25;stroke-opacity:1" />
				<path
   d="M 59.242,8.472 C 57.413,8.367 55.584,8.261 53.755,8.155 C 54.218,6.929 54.699,5.711 55.199,4.501 C 56.963,4.626 58.727,4.751 60.491,4.877 C 60.058,6.067 59.642,7.266 59.242,8.472 z"
   id="path80"
   style="fill:#ffffff;stroke:none;stroke-width:0.25;stroke-opacity:1" />
				<path
   d="M 66.155,8.872 C 64.326,8.767 62.497,8.661 60.668,8.555 C 61.051,7.354 61.451,6.16 61.866,4.975 C 63.63,5.1 65.394,5.226 67.158,5.351 C 66.809,6.517 66.475,7.691 66.155,8.872 z"
   id="path82"
   style="fill:#ffffff;stroke:none;stroke-width:0.25;stroke-opacity:1" />
				<path
   d="M 73.068,9.271 C 71.239,9.166 69.41,9.06 67.582,8.954 C 67.885,7.779 68.203,6.61 68.534,5.448 C 70.298,5.573 72.061,5.699 73.825,5.824 C 73.561,6.967 73.308,8.116 73.068,9.271 z"
   id="path84"
   style="fill:#ffffff;stroke:none;stroke-width:0.25;stroke-opacity:1" />
				<path
   d="M 79.981,9.671 C 78.152,9.566 76.323,9.46 74.495,9.354 C 74.719,8.204 74.954,7.06 75.201,5.922 C 76.965,6.047 78.728,6.172 80.493,6.298 C 80.312,7.417 80.142,8.542 79.981,9.671 z"
   id="path86"
   style="fill:#ffffff;stroke:none;stroke-width:0.25;stroke-opacity:1" />
				<path
   d="M 86.894,10.071 C 85.065,9.966 83.236,9.86 81.408,9.754 C 81.552,8.629 81.705,7.509 81.868,6.396 C 83.632,6.521 85.395,6.647 87.16,6.772 C 87.063,7.866 86.975,8.966 86.894,10.071 z"
   id="path88"
   style="fill:#ffffff;stroke:none;stroke-width:0.25;stroke-opacity:1" />
				<path
   d="M 93.807,10.471 C 91.978,10.366 90.15,10.26 88.321,10.154 C 88.385,9.054 88.457,7.96 88.535,6.87 C 90.299,6.995 92.062,7.12 93.826,7.246 C 93.815,8.316 93.808,9.392 93.807,10.471 z"
   id="path90"
   style="fill:#ffffff;stroke:none;stroke-width:0.25;stroke-opacity:1" />
				<path
   d="M 100.721,10.871 C 98.892,10.766 97.063,10.66 95.234,10.554 C 95.218,9.48 95.208,8.409 95.202,7.344 C 96.966,7.469 98.729,7.595 100.494,7.72 C 100.567,8.766 100.642,9.817 100.721,10.871 z"
   id="path92"
   style="fill:#ffffff;stroke:none;stroke-width:0.25;stroke-opacity:1" />
				<path
   d="M 107.635,11.271 C 105.806,11.166 103.976,11.06 102.147,10.954 C 102.052,9.905 101.959,8.859 101.869,7.818 C 103.634,7.943 105.398,8.069 107.162,8.194 C 107.319,9.216 107.477,10.242 107.635,11.271 z"
   id="path94"
   style="fill:#ffffff;stroke:none;stroke-width:0.25;stroke-opacity:1" />
				<path
   d="M 114.548,11.671 C 112.719,11.566 110.89,11.46 109.061,11.354 C 108.886,10.33 108.711,9.309 108.537,8.292 C 110.301,8.417 112.064,8.542 113.829,8.668 C 114.07,9.666 114.31,10.667 114.548,11.671 z"
   id="path96"
   style="fill:#ffffff;stroke:none;stroke-width:0.25;stroke-opacity:1" />
				<path
   d="M 121.461,12.071 C 119.632,11.966 117.804,11.86 115.975,11.754 C 115.72,10.755 115.463,9.759 115.204,8.767 C 116.968,8.892 118.731,9.017 120.495,9.143 C 120.822,10.116 121.144,11.092 121.461,12.071 z"
   id="path98"
   style="fill:#ffffff;stroke:none;stroke-width:0.25;stroke-opacity:1" />
				<path
   d="M 128.374,12.471 C 126.545,12.365 124.716,12.26 122.888,12.154 C 122.553,11.18 122.214,10.209 121.871,9.24 C 123.635,9.365 125.398,9.491 127.162,9.616 C 127.572,10.565 127.976,11.517 128.374,12.471 z"
   id="path100"
   style="fill:#ffffff;stroke:none;stroke-width:0.25;stroke-opacity:1" />
				<path
   d="M 135.287,12.871 C 133.459,12.765 131.63,12.66 129.802,12.554 C 129.388,11.606 128.967,10.659 128.539,9.715 C 130.303,9.84 132.066,9.965 133.829,10.091 C 134.324,11.015 134.81,11.942 135.287,12.871 z"
   id="path102"
   style="fill:#ffffff;stroke:none;stroke-width:0.25;stroke-opacity:1" />
				<path
   d="M 142.202,13.271 C 140.373,13.166 138.544,13.06 136.715,12.954 C 136.221,12.031 135.718,11.109 135.206,10.188 C 136.97,10.313 138.733,10.439 140.498,10.564 C 141.077,11.465 141.645,12.368 142.202,13.271 z"
   id="path104"
   style="fill:#ffffff;stroke:none;stroke-width:0.25;stroke-opacity:1" />
				<path
   d="M 149.115,13.67 C 147.286,13.564 145.456,13.459 143.627,13.353 C 143.054,12.455 142.469,11.558 141.872,10.662 C 143.637,10.787 145.401,10.913 147.165,11.038 C 147.829,11.915 148.479,12.792 149.115,13.67 z"
   id="path106"
   style="fill:#ffffff;stroke:none;stroke-width:0.25;stroke-opacity:1" />
				<path
   d="M 156.027,14.07 C 154.198,13.964 152.37,13.859 150.542,13.753 C 149.889,12.88 149.222,12.008 148.541,11.136 C 150.304,11.261 152.067,11.386 153.831,11.512 C 154.579,12.365 155.311,13.218 156.027,14.07 z"
   id="path108"
   style="fill:#ffffff;stroke:none;stroke-width:0.25;stroke-opacity:1" />
			</g>
			<g
   id="g110"
   style="stroke:none;stroke-opacity:1">
				<path
   d="M 9.263,53.683 C 6.978,53.849 4.693,54.017 2.408,54.183 C 2.513,52.751 2.656,51.316 2.834,49.878 C 5.101,49.739 7.368,49.601 9.635,49.46 C 9.478,50.87 9.353,52.278 9.263,53.683 z"
   id="path112"
   style="fill:#ffffff;stroke:none;stroke-width:0.25;stroke-opacity:1" />
				<path
   d="M 17.899,53.056 C 15.614,53.222 13.329,53.388 11.044,53.554 C 11.129,52.158 11.249,50.755 11.402,49.353 C 13.669,49.214 15.936,49.074 18.203,48.935 C 18.071,50.312 17.97,51.685 17.899,53.056 z"
   id="path114"
   style="fill:#ffffff;stroke:none;stroke-width:0.25;stroke-opacity:1" />
				<path
   d="M 26.535,52.427 C 24.25,52.593 21.966,52.759 19.681,52.925 C 19.747,51.564 19.844,50.196 19.972,48.827 C 22.238,48.686 24.505,48.548 26.771,48.409 C 26.664,49.751 26.585,51.091 26.535,52.427 z"
   id="path116"
   style="fill:#ffffff;stroke:none;stroke-width:0.25;stroke-opacity:1" />
				<path
   d="M 35.172,51.8 C 32.887,51.966 30.602,52.132 28.318,52.298 C 28.364,50.97 28.439,49.636 28.54,48.3 C 30.807,48.161 33.074,48.023 35.341,47.884 C 35.259,49.192 35.203,50.497 35.172,51.8 z"
   id="path118"
   style="fill:#ffffff;stroke:none;stroke-width:0.25;stroke-opacity:1" />
				<path
   d="M 43.808,51.171 C 41.523,51.337 39.239,51.503 36.954,51.669 C 36.981,50.376 37.033,49.077 37.109,47.774 C 39.376,47.635 41.642,47.497 43.909,47.356 C 43.853,48.632 43.819,49.903 43.808,51.171 z"
   id="path120"
   style="fill:#ffffff;stroke:none;stroke-width:0.25;stroke-opacity:1" />
				<path
   d="M 52.444,50.544 C 50.159,50.71 47.874,50.876 45.589,51.042 C 45.597,49.782 45.626,48.517 45.676,47.249 C 47.943,47.11 50.21,46.97 52.477,46.831 C 52.447,48.073 52.436,49.31 52.444,50.544 z"
   id="path122"
   style="fill:#ffffff;stroke:none;stroke-width:0.25;stroke-opacity:1" />
				<path
   d="M 61.08,49.915 C 58.795,50.081 56.51,50.247 54.225,50.413 C 54.213,49.188 54.219,47.958 54.244,46.724 C 56.511,46.585 58.778,46.445 61.045,46.306 C 61.041,47.513 61.052,48.716 61.08,49.915 z"
   id="path124"
   style="fill:#ffffff;stroke:none;stroke-width:0.25;stroke-opacity:1" />
				<path
   d="M 69.716,49.286 C 67.431,49.452 65.147,49.62 62.862,49.786 C 62.83,48.595 62.814,47.397 62.814,46.198 C 65.081,46.057 67.348,45.919 69.614,45.78 C 69.634,46.954 69.668,48.122 69.716,49.286 z"
   id="path126"
   style="fill:#ffffff;stroke:none;stroke-width:0.25;stroke-opacity:1" />
				<path
   d="M 78.352,48.659 C 76.067,48.825 73.783,48.991 71.498,49.157 C 71.446,48.001 71.408,46.839 71.382,45.671 C 73.649,45.532 75.915,45.394 78.182,45.255 C 78.228,46.394 78.285,47.528 78.352,48.659 z"
   id="path128"
   style="fill:#ffffff;stroke:none;stroke-width:0.25;stroke-opacity:1" />
				<path
   d="M 86.988,48.03 C 84.703,48.196 82.419,48.362 80.134,48.528 C 80.063,47.407 80.002,46.278 79.95,45.145 C 82.217,45.006 84.483,44.868 86.75,44.727 C 86.822,45.835 86.901,46.935 86.988,48.03 z"
   id="path130"
   style="fill:#ffffff;stroke:none;stroke-width:0.25;stroke-opacity:1" />
				<path
   d="M 95.624,47.403 C 93.34,47.569 91.055,47.735 88.77,47.901 C 88.679,46.813 88.595,45.719 88.518,44.62 C 90.785,44.481 93.051,44.341 95.319,44.202 C 95.416,45.274 95.517,46.343 95.624,47.403 z"
   id="path132"
   style="fill:#ffffff;stroke:none;stroke-width:0.25;stroke-opacity:1" />
				<path
   d="M 104.26,46.774 C 101.975,46.94 99.69,47.106 97.405,47.272 C 97.295,46.219 97.188,45.159 97.086,44.094 C 99.354,43.953 101.62,43.815 103.888,43.676 C 104.01,44.716 104.134,45.749 104.26,46.774 z"
   id="path134"
   style="fill:#ffffff;stroke:none;stroke-width:0.25;stroke-opacity:1" />
				<path
   d="M 112.898,46.146 C 110.613,46.314 108.327,46.48 106.042,46.646 C 105.912,45.626 105.783,44.601 105.655,43.57 C 107.923,43.429 110.19,43.291 112.457,43.152 C 112.605,44.155 112.752,45.153 112.898,46.146 z"
   id="path136"
   style="fill:#ffffff;stroke:none;stroke-width:0.25;stroke-opacity:1" />
				<path
   d="M 121.533,45.519 C 119.249,45.685 116.964,45.851 114.679,46.017 C 114.53,45.033 114.377,44.04 114.224,43.042 C 116.492,42.903 118.758,42.765 121.026,42.626 C 121.199,43.597 121.368,44.562 121.533,45.519 z"
   id="path138"
   style="fill:#ffffff;stroke:none;stroke-width:0.25;stroke-opacity:1" />
				<path
   d="M 130.169,44.89 C 127.885,45.056 125.6,45.222 123.315,45.39 C 123.146,44.439 122.971,43.48 122.793,42.517 C 125.06,42.378 127.326,42.24 129.593,42.099 C 129.792,43.036 129.985,43.968 130.169,44.89 z"
   id="path140"
   style="fill:#ffffff;stroke:none;stroke-width:0.25;stroke-opacity:1" />
				<path
   d="M 138.804,44.263 C 136.519,44.429 134.235,44.595 131.95,44.761 C 131.762,43.845 131.564,42.921 131.36,41.991 C 133.627,41.852 135.893,41.712 138.16,41.573 C 138.385,42.478 138.599,43.374 138.804,44.263 z"
   id="path142"
   style="fill:#ffffff;stroke:none;stroke-width:0.25;stroke-opacity:1" />
				<path
   d="M 147.441,43.634 C 145.156,43.8 142.872,43.966 140.587,44.132 C 140.379,43.251 140.159,42.361 139.929,41.466 C 142.196,41.325 144.462,41.187 146.729,41.048 C 146.979,41.917 147.216,42.78 147.441,43.634 z"
   id="path144"
   style="fill:#ffffff;stroke:none;stroke-width:0.25;stroke-opacity:1" />
				<path
   d="M 156.078,43.007 C 153.794,43.173 151.509,43.339 149.224,43.505 C 148.995,42.657 148.753,41.802 148.498,40.939 C 150.765,40.8 153.032,40.662 155.299,40.523 C 155.575,41.358 155.834,42.187 156.078,43.007 z"
   id="path146"
   style="fill:#ffffff;stroke:none;stroke-width:0.25;stroke-opacity:1" />
				<path
   d="M 164.714,42.378 C 162.429,42.544 160.144,42.71 157.859,42.876 C 157.611,42.063 157.346,41.241 157.065,40.413 C 159.333,40.274 161.6,40.136 163.868,39.997 C 164.168,40.798 164.452,41.593 164.714,42.378 z"
   id="path148"
   style="fill:#ffffff;stroke:none;stroke-width:0.25;stroke-opacity:1" />
				<path
   d="M 173.349,41.751 C 171.065,41.917 168.781,42.083 166.495,42.249 C 166.228,41.47 165.941,40.683 165.634,39.888 C 167.901,39.749 170.167,39.611 172.434,39.47 C 172.761,40.239 173.066,40.999 173.349,41.751 z"
   id="path150"
   style="fill:#ffffff;stroke:none;stroke-width:0.25;stroke-opacity:1" />
			</g>
		</g>
	</g>
</g>
<g
   id="g152"
   style="stroke:none;stroke-opacity:1;fill:#020202;fill-opacity:1">
	<g
   id="g154"
   style="stroke:none;stroke-opacity:1;fill:#020202;fill-opacity:1">
		<path
   d="M 1.135,61.132 L 0.639,62.636 L 0,62.636 L 1.624,57.855 L 2.369,57.855 L 4.001,62.636 L 3.342,62.636 L 2.831,61.132 L 1.135,61.132 z M 2.703,60.649 L 2.227,59.272 C 2.127,58.959 2.057,58.676 1.986,58.399 L 1.965,58.399 C 1.902,58.676 1.823,58.975 1.731,59.266 L 1.263,60.649 L 2.703,60.649 z"
   id="path156"
   style="fill:#020202;stroke:none;stroke-opacity:1;fill-opacity:1" />
		<path
   d="M 5.729,60.132 C 5.729,59.771 5.722,59.486 5.701,59.202 L 6.255,59.202 L 6.29,59.763 L 6.305,59.763 C 6.475,59.443 6.872,59.124 7.44,59.124 C 7.916,59.124 8.654,59.407 8.654,60.585 L 8.654,62.636 L 8.027,62.636 L 8.027,60.657 C 8.027,60.102 7.822,59.636 7.233,59.636 C 6.829,59.636 6.509,59.927 6.395,60.275 C 6.367,60.351 6.353,60.466 6.353,60.564 L 6.353,62.636 L 5.729,62.636 L 5.729,60.132 z"
   id="path158"
   style="fill:#020202;stroke:none;stroke-opacity:1;fill-opacity:1" />
		<path
   d="M 10.734,60.132 C 10.734,59.771 10.727,59.486 10.706,59.202 L 11.26,59.202 L 11.295,59.763 L 11.31,59.763 C 11.48,59.443 11.877,59.124 12.445,59.124 C 12.921,59.124 13.659,59.407 13.659,60.585 L 13.659,62.636 L 13.034,62.636 L 13.034,60.657 C 13.034,60.102 12.829,59.636 12.24,59.636 C 11.836,59.636 11.516,59.927 11.402,60.275 C 11.374,60.351 11.36,60.466 11.36,60.564 L 11.36,62.636 L 10.735,62.636 L 10.735,60.132 L 10.734,60.132 z"
   id="path160"
   style="fill:#020202;stroke:none;stroke-opacity:1;fill-opacity:1" />
		<path
   d="M 17.138,62.714 C 16.215,62.714 15.492,62.032 15.492,60.948 C 15.492,59.798 16.252,59.124 17.195,59.124 C 18.181,59.124 18.848,59.841 18.848,60.884 C 18.848,62.161 17.961,62.714 17.145,62.714 L 17.138,62.714 z M 17.159,62.245 C 17.755,62.245 18.202,61.684 18.202,60.905 C 18.202,60.323 17.911,59.592 17.173,59.592 C 16.443,59.592 16.123,60.274 16.123,60.926 C 16.123,61.678 16.549,62.244 17.151,62.244 L 17.159,62.244 L 17.159,62.245 z"
   id="path162"
   style="fill:#020202;stroke:none;stroke-opacity:1;fill-opacity:1" />
		<path
   d="M 21.455,58.38 L 21.455,59.202 L 22.349,59.202 L 22.349,59.677 L 21.455,59.677 L 21.455,61.531 C 21.455,61.955 21.575,62.197 21.923,62.197 C 22.093,62.197 22.193,62.183 22.285,62.154 L 22.313,62.631 C 22.192,62.672 22,62.715 21.759,62.715 C 21.468,62.715 21.234,62.615 21.085,62.453 C 20.914,62.262 20.844,61.955 20.844,61.551 L 20.844,59.678 L 20.312,59.678 L 20.312,59.203 L 20.844,59.203 L 20.844,58.572 L 21.455,58.38 z"
   id="path164"
   style="fill:#020202;stroke:none;stroke-opacity:1;fill-opacity:1" />
		<path
   d="M 26.537,61.813 C 26.537,62.11 26.552,62.401 26.587,62.635 L 26.026,62.635 L 25.969,62.203 L 25.948,62.203 C 25.763,62.473 25.387,62.713 24.898,62.713 C 24.203,62.713 23.847,62.225 23.847,61.727 C 23.847,60.897 24.585,60.444 25.912,60.45 L 25.912,60.38 C 25.912,60.097 25.834,59.579 25.131,59.585 C 24.805,59.585 24.472,59.677 24.231,59.841 L 24.088,59.423 C 24.372,59.245 24.791,59.124 25.224,59.124 C 26.281,59.124 26.537,59.841 26.537,60.528 L 26.537,61.813 L 26.537,61.813 z M 25.927,60.884 C 25.246,60.87 24.473,60.989 24.473,61.657 C 24.473,62.069 24.743,62.253 25.054,62.253 C 25.508,62.253 25.799,61.97 25.899,61.679 C 25.92,61.615 25.927,61.544 25.927,61.48 L 25.927,60.884 L 25.927,60.884 z"
   id="path166"
   style="fill:#020202;stroke:none;stroke-opacity:1;fill-opacity:1" />
		<path
   d="M 29.329,58.38 L 29.329,59.202 L 30.223,59.202 L 30.223,59.677 L 29.329,59.677 L 29.329,61.531 C 29.329,61.955 29.449,62.197 29.797,62.197 C 29.967,62.197 30.067,62.183 30.159,62.154 L 30.187,62.631 C 30.066,62.672 29.874,62.715 29.633,62.715 C 29.342,62.715 29.108,62.615 28.959,62.453 C 28.788,62.262 28.718,61.955 28.718,61.551 L 28.718,59.678 L 28.186,59.678 L 28.186,59.203 L 28.718,59.203 L 28.718,58.572 L 29.329,58.38 z"
   id="path168"
   style="fill:#020202;stroke:none;stroke-opacity:1;fill-opacity:1" />
		<path
   d="M 32.304,61.026 C 32.318,61.87 32.85,62.217 33.474,62.217 C 33.921,62.217 34.199,62.139 34.425,62.047 L 34.538,62.486 C 34.318,62.586 33.935,62.707 33.389,62.707 C 32.339,62.707 31.701,62.004 31.701,60.975 C 31.701,59.932 32.318,59.116 33.319,59.116 C 34.44,59.116 34.731,60.102 34.731,60.735 C 34.731,60.862 34.723,60.962 34.71,61.032 L 32.304,61.026 z M 34.127,60.579 C 34.134,60.188 33.964,59.563 33.269,59.563 C 32.63,59.563 32.361,60.145 32.311,60.579 L 34.127,60.579 z"
   id="path170"
   style="fill:#020202;stroke:none;stroke-opacity:1;fill-opacity:1" />
		<path
   d="M 39.155,57.917 C 39.538,57.86 39.985,57.819 40.474,57.819 C 41.362,57.819 41.993,58.016 42.412,58.407 C 42.845,58.798 43.093,59.358 43.093,60.132 C 43.093,60.911 42.845,61.55 42.405,61.991 C 41.951,62.438 41.213,62.679 40.283,62.679 C 39.836,62.679 39.474,62.665 39.155,62.622 L 39.155,57.917 z M 39.779,62.153 C 39.935,62.182 40.163,62.182 40.404,62.182 C 41.723,62.188 42.44,61.444 42.44,60.153 C 42.447,59.01 41.808,58.307 40.502,58.307 C 40.183,58.307 39.941,58.336 39.778,58.371 L 39.778,62.153 L 39.779,62.153 z"
   id="path172"
   style="fill:#020202;stroke:none;stroke-opacity:1;fill-opacity:1" />
		<path
   d="M 45.247,58.571 C 45.013,58.571 44.856,58.385 44.856,58.167 C 44.856,57.946 45.019,57.769 45.26,57.769 C 45.501,57.769 45.657,57.947 45.657,58.167 C 45.657,58.386 45.501,58.571 45.253,58.571 L 45.247,58.571 z M 44.948,62.636 L 44.948,59.202 L 45.573,59.202 L 45.573,62.636 L 44.948,62.636 z"
   id="path174"
   style="fill:#020202;stroke:none;stroke-opacity:1;fill-opacity:1" />
		<path
   d="M 50.612,62.132 C 50.612,62.927 50.449,63.403 50.123,63.708 C 49.782,64.013 49.3,64.12 48.867,64.12 C 48.456,64.12 48.002,64.02 47.724,63.835 L 47.88,63.353 C 48.108,63.501 48.462,63.63 48.888,63.63 C 49.527,63.63 49.994,63.296 49.994,62.423 L 49.994,62.048 L 49.98,62.048 C 49.795,62.366 49.419,62.622 48.887,62.622 C 48.035,62.622 47.425,61.897 47.425,60.94 C 47.425,59.776 48.185,59.124 48.979,59.124 C 49.576,59.124 49.895,59.429 50.05,59.714 L 50.065,59.714 L 50.086,59.202 L 50.639,59.202 C 50.618,59.442 50.611,59.72 50.611,60.138 L 50.611,62.132 L 50.612,62.132 z M 49.988,60.55 C 49.988,60.45 49.981,60.359 49.953,60.275 C 49.839,59.906 49.541,59.607 49.08,59.607 C 48.484,59.607 48.059,60.111 48.059,60.912 C 48.059,61.58 48.407,62.148 49.074,62.148 C 49.464,62.148 49.811,61.906 49.939,61.502 C 49.974,61.402 49.989,61.281 49.989,61.168 L 49.989,60.55 L 49.988,60.55 z"
   id="path176"
   style="fill:#020202;stroke:none;stroke-opacity:1;fill-opacity:1" />
		<path
   d="M 53.007,58.571 C 52.773,58.571 52.616,58.385 52.616,58.167 C 52.616,57.946 52.779,57.769 53.02,57.769 C 53.261,57.769 53.417,57.947 53.417,58.167 C 53.417,58.386 53.261,58.571 53.013,58.571 L 53.007,58.571 z M 52.708,62.636 L 52.708,59.202 L 53.333,59.202 L 53.333,62.636 L 52.708,62.636 z"
   id="path178"
   style="fill:#020202;stroke:none;stroke-opacity:1;fill-opacity:1" />
		<path
   d="M 56.188,58.38 L 56.188,59.202 L 57.082,59.202 L 57.082,59.677 L 56.188,59.677 L 56.188,61.531 C 56.188,61.955 56.308,62.197 56.656,62.197 C 56.826,62.197 56.926,62.183 57.018,62.154 L 57.046,62.631 C 56.925,62.672 56.733,62.715 56.492,62.715 C 56.201,62.715 55.967,62.615 55.818,62.453 C 55.647,62.262 55.577,61.955 55.577,61.551 L 55.577,59.678 L 55.045,59.678 L 55.045,59.203 L 55.577,59.203 L 55.577,58.572 L 56.188,58.38 z"
   id="path180"
   style="fill:#020202;stroke:none;stroke-opacity:1;fill-opacity:1" />
		<path
   d="M 61.27,61.813 C 61.27,62.11 61.285,62.401 61.32,62.635 L 60.759,62.635 L 60.702,62.203 L 60.681,62.203 C 60.496,62.473 60.12,62.713 59.631,62.713 C 58.936,62.713 58.58,62.225 58.58,61.727 C 58.58,60.897 59.318,60.444 60.645,60.45 L 60.645,60.38 C 60.645,60.097 60.567,59.579 59.864,59.585 C 59.538,59.585 59.205,59.677 58.964,59.841 L 58.821,59.423 C 59.105,59.245 59.524,59.124 59.957,59.124 C 61.014,59.124 61.27,59.841 61.27,60.528 L 61.27,61.813 z M 60.659,60.884 C 59.978,60.87 59.205,60.989 59.205,61.657 C 59.205,62.069 59.475,62.253 59.786,62.253 C 60.24,62.253 60.531,61.97 60.631,61.679 C 60.652,61.615 60.659,61.544 60.659,61.48 L 60.659,60.884 z"
   id="path182"
   style="fill:#020202;stroke:none;stroke-opacity:1;fill-opacity:1" />
		<path
   d="M 63.337,57.599 L 63.962,57.599 L 63.962,62.636 L 63.337,62.636 L 63.337,57.599 z"
   id="path184"
   style="fill:#020202;stroke:none;stroke-opacity:1;fill-opacity:1" />
		<path
   d="M 69.45,62.636 L 67.882,57.855 L 68.556,57.855 L 69.301,60.21 C 69.499,60.855 69.677,61.444 69.812,61.997 L 69.827,61.997 C 69.962,61.444 70.153,60.841 70.373,60.216 L 71.182,57.855 L 71.842,57.855 L 70.132,62.636 L 69.45,62.636 z"
   id="path186"
   style="fill:#020202;stroke:none;stroke-opacity:1;fill-opacity:1" />
		<path
   d="M 73.795,58.571 C 73.561,58.571 73.404,58.385 73.404,58.167 C 73.404,57.946 73.567,57.769 73.808,57.769 C 74.049,57.769 74.205,57.947 74.205,58.167 C 74.205,58.386 74.049,58.571 73.801,58.571 L 73.795,58.571 z M 73.496,62.636 L 73.496,59.202 L 74.121,59.202 L 74.121,62.636 L 73.496,62.636 z"
   id="path188"
   style="fill:#020202;stroke:none;stroke-opacity:1;fill-opacity:1" />
		<path
   d="M 79.188,57.599 L 79.188,61.749 C 79.188,62.054 79.196,62.401 79.216,62.636 L 78.656,62.636 L 78.627,62.04 L 78.613,62.04 C 78.422,62.423 78.009,62.714 77.449,62.714 C 76.619,62.714 75.973,62.013 75.973,60.97 C 75.966,59.82 76.683,59.124 77.513,59.124 C 78.045,59.124 78.4,59.372 78.549,59.642 L 78.563,59.642 L 78.563,57.599 L 79.188,57.599 L 79.188,57.599 z M 78.564,60.601 C 78.564,60.515 78.557,60.415 78.536,60.331 C 78.444,59.94 78.103,59.614 77.635,59.614 C 76.989,59.614 76.607,60.18 76.607,60.932 C 76.607,61.635 76.955,62.209 77.622,62.209 C 78.04,62.209 78.424,61.926 78.537,61.465 C 78.558,61.379 78.565,61.295 78.565,61.195 L 78.565,60.601 L 78.564,60.601 z"
   id="path190"
   style="fill:#020202;stroke:none;stroke-opacity:1;fill-opacity:1" />
		<path
   d="M 81.647,61.026 C 81.661,61.87 82.193,62.217 82.817,62.217 C 83.264,62.217 83.542,62.139 83.768,62.047 L 83.881,62.486 C 83.661,62.586 83.278,62.707 82.732,62.707 C 81.682,62.707 81.044,62.004 81.044,60.975 C 81.044,59.932 81.661,59.116 82.662,59.116 C 83.783,59.116 84.074,60.102 84.074,60.735 C 84.074,60.862 84.066,60.962 84.053,61.032 L 81.647,61.026 z M 83.471,60.579 C 83.478,60.188 83.308,59.563 82.613,59.563 C 81.974,59.563 81.705,60.145 81.655,60.579 L 83.471,60.579 z"
   id="path192"
   style="fill:#020202;stroke:none;stroke-opacity:1;fill-opacity:1" />
		<path
   d="M 87.313,62.714 C 86.39,62.714 85.667,62.032 85.667,60.948 C 85.667,59.798 86.427,59.124 87.37,59.124 C 88.356,59.124 89.024,59.841 89.024,60.884 C 89.024,62.161 88.137,62.714 87.32,62.714 L 87.313,62.714 z M 87.334,62.245 C 87.93,62.245 88.377,61.684 88.377,60.905 C 88.377,60.323 88.086,59.592 87.348,59.592 C 86.618,59.592 86.298,60.274 86.298,60.926 C 86.298,61.678 86.724,62.244 87.326,62.244 L 87.334,62.244 L 87.334,62.245 z"
   id="path194"
   style="fill:#020202;stroke:none;stroke-opacity:1;fill-opacity:1" />
		<path
   d="M 90.273,63.517 C 90.429,63.091 90.621,62.331 90.699,61.814 L 91.394,61.744 C 91.224,62.346 90.912,63.135 90.714,63.467 L 90.273,63.517 z"
   id="path196"
   style="fill:#020202;stroke:none;stroke-opacity:1;fill-opacity:1" />
		<path
   d="M 97.785,60.394 L 95.931,60.394 L 95.931,62.119 L 98.003,62.119 L 98.003,62.637 L 95.308,62.637 L 95.308,57.856 L 97.898,57.856 L 97.898,58.374 L 95.931,58.374 L 95.931,59.886 L 97.785,59.886 L 97.785,60.394 L 97.785,60.394 z"
   id="path198"
   style="fill:#020202;stroke:none;stroke-opacity:1;fill-opacity:1" />
		<path
   d="M 100.142,59.202 L 100.632,59.932 C 100.759,60.131 100.864,60.301 100.98,60.493 L 101,60.493 C 101.115,60.294 101.229,60.118 101.348,59.932 L 101.825,59.202 L 102.507,59.202 L 101.335,60.862 L 102.534,62.635 L 101.825,62.635 L 101.321,61.862 C 101.186,61.665 101.073,61.471 100.952,61.266 L 100.938,61.266 C 100.825,61.471 100.704,61.657 100.575,61.862 L 100.079,62.635 L 99.39,62.635 L 100.611,60.883 L 99.447,59.201 L 100.142,59.201 L 100.142,59.202 z"
   id="path200"
   style="fill:#020202;stroke:none;stroke-opacity:1;fill-opacity:1" />
		<path
   d="M 106.544,62.515 C 106.382,62.593 106.019,62.714 105.558,62.714 C 104.523,62.714 103.849,62.013 103.849,60.954 C 103.849,59.897 104.572,59.124 105.693,59.124 C 106.062,59.124 106.388,59.216 106.56,59.308 L 106.417,59.785 C 106.269,59.707 106.034,59.621 105.692,59.621 C 104.905,59.621 104.479,60.211 104.479,60.928 C 104.479,61.723 104.991,62.211 105.67,62.211 C 106.025,62.211 106.26,62.127 106.438,62.049 L 106.544,62.515 z"
   id="path202"
   style="fill:#020202;stroke:none;stroke-opacity:1;fill-opacity:1" />
		<path
   d="M 108.343,57.599 L 108.968,57.599 L 108.968,59.742 L 108.982,59.742 C 109.082,59.564 109.238,59.402 109.429,59.303 C 109.613,59.19 109.833,59.125 110.068,59.125 C 110.529,59.125 111.267,59.408 111.267,60.594 L 111.267,62.637 L 110.642,62.637 L 110.642,60.664 C 110.642,60.103 110.437,59.643 109.847,59.643 C 109.443,59.643 109.13,59.928 109.009,60.268 C 108.974,60.352 108.968,60.446 108.968,60.565 L 108.968,62.637 L 108.343,62.637 L 108.343,57.599 z"
   id="path204"
   style="fill:#020202;stroke:none;stroke-opacity:1;fill-opacity:1" />
		<path
   d="M 115.767,61.813 C 115.767,62.11 115.783,62.401 115.818,62.635 L 115.257,62.635 L 115.2,62.203 L 115.179,62.203 C 114.993,62.473 114.618,62.713 114.128,62.713 C 113.433,62.713 113.077,62.225 113.077,61.727 C 113.077,60.897 113.815,60.444 115.143,60.45 L 115.143,60.38 C 115.143,60.097 115.065,59.579 114.362,59.585 C 114.036,59.585 113.702,59.677 113.462,59.841 L 113.319,59.423 C 113.602,59.245 114.022,59.124 114.454,59.124 C 115.511,59.124 115.767,59.841 115.767,60.528 L 115.767,61.813 L 115.767,61.813 z M 115.158,60.884 C 114.476,60.87 113.703,60.989 113.703,61.657 C 113.703,62.069 113.973,62.253 114.285,62.253 C 114.738,62.253 115.029,61.97 115.129,61.679 C 115.15,61.615 115.158,61.544 115.158,61.48 L 115.158,60.884 L 115.158,60.884 z"
   id="path206"
   style="fill:#020202;stroke:none;stroke-opacity:1;fill-opacity:1" />
		<path
   d="M 117.835,60.132 C 117.835,59.771 117.827,59.486 117.806,59.202 L 118.361,59.202 L 118.396,59.763 L 118.41,59.763 C 118.58,59.443 118.978,59.124 119.545,59.124 C 120.022,59.124 120.76,59.407 120.76,60.585 L 120.76,62.636 L 120.135,62.636 L 120.135,60.657 C 120.135,60.102 119.93,59.636 119.34,59.636 C 118.936,59.636 118.617,59.927 118.502,60.275 C 118.475,60.351 118.461,60.466 118.461,60.564 L 118.461,62.636 L 117.836,62.636 L 117.836,60.132 L 117.835,60.132 z"
   id="path208"
   style="fill:#020202;stroke:none;stroke-opacity:1;fill-opacity:1" />
		<path
   d="M 125.779,62.132 C 125.779,62.927 125.615,63.403 125.289,63.708 C 124.949,64.013 124.467,64.12 124.033,64.12 C 123.623,64.12 123.168,64.02 122.89,63.835 L 123.046,63.353 C 123.275,63.501 123.628,63.63 124.054,63.63 C 124.693,63.63 125.161,63.296 125.161,62.423 L 125.161,62.048 L 125.147,62.048 C 124.961,62.366 124.586,62.622 124.053,62.622 C 123.201,62.622 122.592,61.897 122.592,60.94 C 122.592,59.776 123.352,59.124 124.145,59.124 C 124.743,59.124 125.061,59.429 125.217,59.714 L 125.231,59.714 L 125.252,59.202 L 125.805,59.202 C 125.785,59.442 125.778,59.72 125.778,60.138 L 125.778,62.132 L 125.779,62.132 z M 125.154,60.55 C 125.154,60.45 125.148,60.359 125.119,60.275 C 125.006,59.906 124.707,59.607 124.246,59.607 C 123.65,59.607 123.225,60.111 123.225,60.912 C 123.225,61.58 123.573,62.148 124.241,62.148 C 124.63,62.148 124.977,61.906 125.106,61.502 C 125.141,61.402 125.155,61.281 125.155,61.168 L 125.155,60.55 L 125.154,60.55 z"
   id="path210"
   style="fill:#020202;stroke:none;stroke-opacity:1;fill-opacity:1" />
		<path
   d="M 128.23,61.026 C 128.244,61.87 128.775,62.217 129.4,62.217 C 129.847,62.217 130.125,62.139 130.351,62.047 L 130.464,62.486 C 130.243,62.586 129.86,62.707 129.314,62.707 C 128.265,62.707 127.626,62.004 127.626,60.975 C 127.626,59.932 128.243,59.116 129.243,59.116 C 130.364,59.116 130.655,60.102 130.655,60.735 C 130.655,60.862 130.647,60.962 130.634,61.032 L 128.23,61.026 z M 130.052,60.579 C 130.06,60.188 129.89,59.563 129.195,59.563 C 128.556,59.563 128.287,60.145 128.236,60.579 L 130.052,60.579 z"
   id="path212"
   style="fill:#020202;stroke:none;stroke-opacity:1;fill-opacity:1" />
		<path
   d="M 136.464,62.714 C 135.542,62.714 134.818,62.032 134.818,60.948 C 134.818,59.798 135.578,59.124 136.521,59.124 C 137.507,59.124 138.175,59.841 138.175,60.884 C 138.175,62.161 137.288,62.714 136.472,62.714 L 136.464,62.714 z M 136.486,62.245 C 137.082,62.245 137.529,61.684 137.529,60.905 C 137.529,60.323 137.238,59.592 136.5,59.592 C 135.77,59.592 135.451,60.274 135.451,60.926 C 135.451,61.678 135.877,62.244 136.478,62.244 L 136.486,62.244 L 136.486,62.245 z"
   id="path214"
   style="fill:#020202;stroke:none;stroke-opacity:1;fill-opacity:1" />
		<path
   d="M 140.029,60.132 C 140.029,59.771 140.023,59.486 140.002,59.202 L 140.555,59.202 L 140.59,59.763 L 140.606,59.763 C 140.776,59.443 141.172,59.124 141.741,59.124 C 142.216,59.124 142.954,59.407 142.954,60.585 L 142.954,62.636 L 142.329,62.636 L 142.329,60.657 C 142.329,60.102 142.124,59.636 141.536,59.636 C 141.132,59.636 140.811,59.927 140.698,60.275 C 140.669,60.351 140.655,60.466 140.655,60.564 L 140.655,62.636 L 140.03,62.636 L 140.03,60.132 L 140.029,60.132 z"
   id="path216"
   style="fill:#020202;stroke:none;stroke-opacity:1;fill-opacity:1" />
		<path
   d="M 148.357,58.38 L 148.357,59.202 L 149.252,59.202 L 149.252,59.677 L 148.357,59.677 L 148.357,61.531 C 148.357,61.955 148.478,62.197 148.826,62.197 C 148.996,62.197 149.096,62.183 149.187,62.154 L 149.216,62.631 C 149.095,62.672 148.903,62.715 148.661,62.715 C 148.37,62.715 148.136,62.615 147.987,62.453 C 147.817,62.262 147.747,61.955 147.747,61.551 L 147.747,59.678 L 147.214,59.678 L 147.214,59.203 L 147.747,59.203 L 147.747,58.572 L 148.357,58.38 z"
   id="path218"
   style="fill:#020202;stroke:none;stroke-opacity:1;fill-opacity:1" />
		<path
   d="M 151.019,57.599 L 151.644,57.599 L 151.644,59.742 L 151.658,59.742 C 151.758,59.564 151.914,59.402 152.105,59.303 C 152.291,59.19 152.509,59.125 152.744,59.125 C 153.205,59.125 153.943,59.408 153.943,60.594 L 153.943,62.637 L 153.318,62.637 L 153.318,60.664 C 153.318,60.103 153.113,59.643 152.525,59.643 C 152.121,59.643 151.808,59.928 151.687,60.268 C 151.652,60.352 151.644,60.446 151.644,60.565 L 151.644,62.637 L 151.019,62.637 L 151.019,57.599 L 151.019,57.599 z"
   id="path220"
   style="fill:#020202;stroke:none;stroke-opacity:1;fill-opacity:1" />
		<path
   d="M 156.38,61.026 C 156.394,61.87 156.927,62.217 157.552,62.217 C 157.997,62.217 158.275,62.139 158.501,62.047 L 158.614,62.486 C 158.395,62.586 158.012,62.707 157.466,62.707 C 156.415,62.707 155.777,62.004 155.777,60.975 C 155.777,59.932 156.394,59.116 157.396,59.116 C 158.517,59.116 158.808,60.102 158.808,60.735 C 158.808,60.862 158.8,60.962 158.787,61.032 L 156.38,61.026 z M 158.205,60.579 C 158.211,60.188 158.041,59.563 157.346,59.563 C 156.707,59.563 156.438,60.145 156.389,60.579 L 158.205,60.579 z"
   id="path222"
   style="fill:#020202;stroke:none;stroke-opacity:1;fill-opacity:1" />
		<path
   d="M 163.238,62.636 L 163.238,57.855 L 163.92,57.855 L 165.445,60.275 C 165.793,60.836 166.076,61.332 166.297,61.828 L 166.318,61.82 C 166.261,61.183 166.248,60.601 166.248,59.863 L 166.248,57.855 L 166.83,57.855 L 166.83,62.636 L 166.205,62.636 L 164.685,60.21 C 164.353,59.677 164.033,59.132 163.798,58.612 L 163.777,58.62 C 163.814,59.224 163.82,59.798 163.82,60.593 L 163.82,62.636 L 163.238,62.636 L 163.238,62.636 z"
   id="path224"
   style="fill:#020202;stroke:none;stroke-opacity:1;fill-opacity:1" />
		<path
   d="M 171.445,60.394 L 169.593,60.394 L 169.593,62.119 L 171.665,62.119 L 171.665,62.637 L 168.968,62.637 L 168.968,57.856 L 171.558,57.856 L 171.558,58.374 L 169.593,58.374 L 169.593,59.886 L 171.445,59.886 L 171.445,60.394 z"
   id="path226"
   style="fill:#020202;stroke:none;stroke-opacity:1;fill-opacity:1" />
		<path
   d="M 174.23,58.38 L 174.23,59.202 L 175.123,59.202 L 175.123,59.677 L 174.23,59.677 L 174.23,61.531 C 174.23,61.955 174.349,62.197 174.697,62.197 C 174.867,62.197 174.967,62.183 175.06,62.154 L 175.087,62.631 C 174.966,62.672 174.774,62.715 174.534,62.715 C 174.243,62.715 174.009,62.615 173.86,62.453 C 173.688,62.262 173.618,61.955 173.618,61.551 L 173.618,59.678 L 173.087,59.678 L 173.087,59.203 L 173.618,59.203 L 173.618,58.572 L 174.23,58.38 z"
   id="path228"
   style="fill:#020202;stroke:none;stroke-opacity:1;fill-opacity:1" />
	</g>
</g>
</svg>