<?xml version="1.0" encoding="UTF-8" standalone="no"?>
<!-- Created with Inkscape (http://www.inkscape.org/) -->
<svg id="svg2" xmlns:rdf="http://www.w3.org/1999/02/22-rdf-syntax-ns#" xmlns="http://www.w3.org/2000/svg" height="1052.4" width="744.09" version="1.1" xmlns:cc="http://creativecommons.org/ns#" xmlns:xlink="http://www.w3.org/1999/xlink" xmlns:dc="http://purl.org/dc/elements/1.1/">
 <defs id="defs4">
  <linearGradient id="linearGradient654" y2="27.927" gradientUnits="userSpaceOnUse" x2="82.883" gradientTransform="scale(.98642 1.0138)" y1="27.3" x1="8.604">
   <stop id="stop585" stop-color="#fff" offset="0"/>
   <stop id="stop586" stop-color="#fff" stop-opacity="0" offset="1"/>
  </linearGradient>
 </defs>
 <metadata id="metadata7">
  <rdf:RDF>
   <cc:Work rdf:about="">
    <dc:format>image/svg+xml</dc:format>
    <dc:type rdf:resource="http://purl.org/dc/dcmitype/StillImage"/>
    <dc:title/>
   </cc:Work>
  </rdf:RDF>
 </metadata>
 <g id="layer1">
  <g id="g3827" fill-rule="evenodd" transform="translate(95.645 66.733)">
   <path id="path868" d="m51.538 31.489c0 10.815-8.5215 19.581-19.033 19.581s-19.033-8.7669-19.033-19.581c0-10.815 8.5215-19.581 19.033-19.581s19.033 8.7669 19.033 19.581z" fill-opacity=".38710" transform="matrix(1.362 0 0 1.3128 -11.003 -10.33)" stroke-width="0" fill="#040000"/>
   <path id="path867" d="m51.538 31.489c0 10.815-8.5215 19.581-19.033 19.581s-19.033-8.7669-19.033-19.581c0-10.815 8.5215-19.581 19.033-19.581s19.033 8.7669 19.033 19.581z" transform="matrix(1.362 0 0 1.3128 -14.982 -11.823)" stroke="#000" stroke-width="1.4841" fill="url(#linearGradient654)"/>
   <rect id="rect867" stroke-width=".36129" fill-opacity=".75" transform="matrix(.0095486 .99995 -.99995 .0095486 0 0)" ry=".44765" width="2.2618" stroke="#000" y="-10.326" x="27.806" height="4.5154" fill="#0a0608"/>
   <rect id="rect869" stroke-width=".36129" fill-opacity=".75" transform="matrix(.0095486 .99995 -.99995 .0095486 0 0)" ry=".44765" width="2.2618" stroke="#000" y="-10.326" x="31.252" height="4.5154" fill="#0a0608"/>
   <rect id="rect870" fill-opacity=".75" ry=".44765" height="4.5154" width="2.2619" stroke="#000" y="8.7426" x="25.558" stroke-width=".36129" fill="#0a0608"/>
   <rect id="rect871" fill-opacity=".75" ry=".44765" height="4.5154" width="2.2619" stroke="#000" y="8.7426" x="29.005" stroke-width=".36129" fill="#0a0608"/>
   <rect id="rect872" fill-opacity=".75" ry=".44765" height="4.5154" width="2.2619" stroke="#000" y="46.966" x="26.342" stroke-width=".36129" fill="#0a0608"/>
   <rect id="rect873" fill-opacity=".75" ry=".44765" height="4.5154" width="2.2619" stroke="#000" y="46.966" x="29.788" stroke-width=".36129" fill="#0a0608"/>
   <rect id="rect874" stroke-width=".36129" fill-opacity=".75" transform="matrix(.0095486 .99995 -.99995 .0095486 0 0)" ry=".44765" width="2.2618" stroke="#000" y="-52.152" x="28.049" height="4.5154" fill="#0a0608"/>
   <rect id="rect875" stroke-width=".36129" fill-opacity=".75" transform="matrix(.0095486 .99995 -.99995 .0095486 0 0)" ry=".44765" width="2.2618" stroke="#000" y="-52.152" x="31.495" height="4.5154" fill="#0a0608"/>
   <path id="path878" d="m44.363 2.2659c-3.742 3.9471-12.378 16.738-15.5 21.919-2.5255 4.7451-4.2561 7.5753-4.447 12.371 3.6678-2.3933 5.4231-4.4088 8.197-9.5738 2.824-4.963 10.268-19.45 11.75-24.716z" fill-opacity=".75" stroke="#000" stroke-width=".93115pt" fill="#060000"/>
   <path id="path879" d="m48.607 25.363c-4.1547 0.1293-15.62 2.3258-20.05 3.4076-3.8655 1.1602-6.2993 1.7381-8.8548 4.113 3.3194 0.63364 5.3519 0.48833 9.5737-0.76189 4.1474-1.121 15.796-4.799 19.331-6.7588z" fill-opacity=".75" stroke="#000" stroke-width=".69347pt" fill="#060000"/>
  </g>
  <rect id="rect3590" stroke-linejoin="round" fill-opacity=".73305" height="120" width="160" stroke="#bababa" y="37.362" x="45.714" stroke-width="3" fill="#d8d8d8"/>
 </g>
</svg>
