/* XPM */
static char * close_active_xpm[] = {
"16 22 168 2",
"  	c None",
". 	c #6D6D6D",
"+ 	c #E2E2E2",
"@ 	c #C5C5C5",
"# 	c #C4C4C4",
"$ 	c #C3C3C3",
"% 	c #B8B2B3",
"& 	c #846263",
"* 	c #602B2D",
"= 	c #511516",
"- 	c #C2C2C2",
"; 	c #998485",
"> 	c #4F1012",
", 	c #551012",
"' 	c #682223",
") 	c #7B3A3B",
"! 	c #7A393A",
"~ 	c #682123",
"{ 	c #540F12",
"] 	c #9A8485",
"^ 	c #4C080A",
"/ 	c #6B1416",
"( 	c #9C3335",
"_ 	c #CC7F81",
": 	c #F3DCDC",
"< 	c #F3D9DA",
"[ 	c #CB7B7C",
"} 	c #9B3134",
"| 	c #6B1415",
"1 	c #C1C1C1",
"2 	c #B7B2B2",
"3 	c #521315",
"4 	c #751416",
"5 	c #AF2224",
"6 	c #CC3336",
"7 	c #DF6668",
"8 	c #F1B5B6",
"9 	c #F0B3B3",
"0 	c #DE6364",
"a 	c #CB3234",
"b 	c #AE2123",
"c 	c #C0C0C0",
"d 	c #856465",
"e 	c #621013",
"f 	c #B62023",
"g 	c #D12224",
"h 	c #DF2628",
"i 	c #E83A3C",
"j 	c #EF6666",
"k 	c #EF6465",
"l 	c #E8393A",
"m 	c #DF2627",
"n 	c #BFBFBF",
"o 	c #743234",
"p 	c #961D1F",
"q 	c #D22325",
"r 	c #E52426",
"s 	c #EF2627",
"t 	c #F4292A",
"u 	c #F63132",
"v 	c #E52526",
"w 	c #733335",
"x 	c #BEBEBE",
"y 	c #751C1F",
"z 	c #B52426",
"A 	c #E32B2C",
"B 	c #F22E2F",
"C 	c #F83233",
"D 	c #FB3737",
"E 	c #FB3A3B",
"F 	c #FB3B3B",
"G 	c #FB3838",
"H 	c #F83434",
"I 	c #F23030",
"J 	c #E42C2D",
"K 	c #B52527",
"L 	c #832326",
"M 	c #C12C2E",
"N 	c #EF3839",
"O 	c #F93F40",
"P 	c #FC4848",
"Q 	c #FD5353",
"R 	c #FD5C5C",
"S 	c #FD5D5D",
"T 	c #FD5555",
"U 	c #FC4B4B",
"V 	c #F94242",
"W 	c #EF3A3B",
"X 	c #C12E30",
"Y 	c #832426",
"Z 	c #BDBDBD",
"` 	c #A2494B",
" .	c #C13536",
"..	c #F44849",
"+.	c #FB5354",
"@.	c #FD6262",
"#.	c #FD7272",
"$.	c #FD7F7F",
"%.	c #FE8080",
"&.	c #FD7575",
"*.	c #FD6565",
"=.	c #FB5757",
"-.	c #F44B4B",
";.	c #C13839",
">.	c #A34B4D",
",.	c #BCBCBC",
"'.	c #B07B7C",
").	c #B0393A",
"!.	c #F25959",
"~.	c #FC6868",
"{.	c #FD7979",
"].	c #FD8B8B",
"^.	c #FE9999",
"/.	c #FD8D8E",
"(.	c #FD7C7C",
"_.	c #FC6B6B",
":.	c #F35C5C",
"<.	c #B13B3D",
"[.	c #B07C7D",
"}.	c #BBBBBB",
"|.	c #C5BDBD",
"1.	c #AD4F50",
"2.	c #D25D5E",
"3.	c #FB7979",
"4.	c #FD9C9C",
"5.	c #FEA7A7",
"6.	c #FEA8A8",
"7.	c #FD9E9E",
"8.	c #FD8E8E",
"9.	c #FB7D7D",
"0.	c #D26161",
"a.	c #AF5253",
"b.	c #C4BCBC",
"c.	c #BABABA",
"d.	c #BE9D9D",
"e.	c #B96061",
"f.	c #DC7E7F",
"g.	c #FA9696",
"h.	c #FDA4A4",
"i.	c #FDADAD",
"j.	c #FDAEAE",
"k.	c #FDA6A6",
"l.	c #FA9898",
"m.	c #DD8282",
"n.	c #BB6464",
"o.	c #B9B9B9",
"p.	c #BF9F9F",
"q.	c #BE7373",
"r.	c #D38F8F",
"s.	c #E59F9F",
"t.	c #EEA8A8",
"u.	c #E5A0A0",
"v.	c #D49192",
"w.	c #C07576",
"x.	c #C09F9F",
"y.	c #B8B8B8",
"z.	c #D0C7C7",
"A.	c #B98A8A",
"B.	c #C08383",
"C.	c #CA8C8D",
"D.	c #CA8D8D",
"E.	c #B98A8B",
"F.	c #B7B7B7",
"G.	c #C7C7C7",
"H.	c #D2D2D2",
"I.	c #D6D6D6",
"J.	c #B6B6B6",
"K.	c #B5B5B5",
". . . . . . . . . . . . . . . . ",
"+ + + + + + + + + + + + + + + + ",
"@ @ @ @ @ @ @ @ @ @ @ @ @ @ @ @ ",
"# # # # # # # # # # # # # # # # ",
"$ $ $ $ $ $ $ $ $ $ $ $ $ $ $ $ ",
"$ $ $ $ % & * = = * & % $ $ $ $ ",
"- - - ; > , ' ) ! ~ { > ; - - - ",
"- - ] ^ / ( _ : < [ } | ^ ] - - ",
"1 2 3 4 5 6 7 8 9 0 a b 4 3 2 1 ",
"c d e f g h i j k l m g f e d c ",
"n o p q r s t u u t s v q p w n ",
"x y z A B C D E F G H I J K y x ",
"x L M N O P Q R S T U V W X Y x ",
"Z `  ...+.@.#.$.%.&.*.=.-.;.>.Z ",
",.'.).!.~.{.].^.^./.(._.:.<.[.,.",
"}.|.1.2.3.].4.5.6.7.8.9.0.a.b.}.",
"c.c.d.e.f.g.h.i.j.k.l.m.n.d.c.c.",
"o.o.$ p.q.r.s.t.t.u.v.w.x.$ o.o.",
"y.y.y.- z.A.B.C.D.B.E.z.- y.y.y.",
"F.F.F.F.F.G.H.I.I.H.G.F.F.F.F.F.",
"J.J.J.J.J.J.J.J.J.J.J.J.J.J.J.J.",
"K.K.K.K.K.K.K.K.K.K.K.K.K.K.K.K."};
