/* XPM */
static char * close_inactive_xpm[] = {
"16 22 79 1",
" 	c None",
".	c #6D6D6D",
"+	c #E2E2E2",
"@	c #C5C5C5",
"#	c #C4C4C4",
"$	c #C3C3C3",
"%	c #BABABA",
"&	c #929292",
"*	c #7C7C7C",
"=	c #767676",
"-	c #757575",
";	c #7B7B7B",
">	c #BDBDBD",
",	c #C2C2C2",
"'	c #A2A2A2",
")	c #6F706F",
"!	c #7A7A79",
"~	c #878787",
"{	c #939392",
"]	c #919190",
"^	c #848584",
"/	c #777777",
"(	c #6F6F6F",
"_	c #A4A4A4",
":	c #727272",
"<	c #828282",
"[	c #9B9B9B",
"}	c #B7B8B7",
"|	c #CDCECB",
"1	c #CACBC9",
"2	c #B3B3B2",
"3	c #989998",
"4	c #A5A5A5",
"5	c #C1C1C1",
"6	c #B9B9B9",
"7	c #8B8B8B",
"8	c #B1B1B1",
"9	c #BEBEBD",
"0	c #CACCC9",
"a	c #C9C9C7",
"b	c #B0B0B0",
"c	c #A3A3A3",
"d	c #BEBEBE",
"e	c #C0C0C0",
"f	c #8A8A8A",
"g	c #A7A7A7",
"h	c #B6B6B6",
"i	c #BABBBA",
"j	c #B5B5B5",
"k	c #A0A0A0",
"l	c #BFBFBF",
"m	c #8E8E8E",
"n	c #9C9C9C",
"o	c #B7B7B7",
"p	c #BCBCBC",
"q	c #898989",
"r	c #B8B8B8",
"s	c #ADADAD",
"t	c #C7C7C7",
"u	c #C9C9C9",
"v	c #989898",
"w	c #AAAAAA",
"x	c #C8C8C8",
"y	c #CBCBCB",
"z	c #CECECE",
"A	c #A8A8A8",
"B	c #A1A1A1",
"C	c #CFCFCF",
"D	c #D2D2D2",
"E	c #CCCCCC",
"F	c #AAA9A9",
"G	c #BBBBBB",
"H	c #CDCDCD",
"I	c #D0D0D0",
"J	c #D1D1D1",
"K	c #C6C6C6",
"L	c #B3B3B3",
"M	c #AEAEAE",
"N	c #CACACA",
"................",
"++++++++++++++++",
"@@@@@@@@@@@@@@@@",
"################",
"$$$$$$$$$$$$$$$$",
"$$$$%&*=-;&>$$$$",
",,,')!~{]^/(',,,",
",,_:<[}|123<:4,,",
"56;7_890a%bc7;d5",
"e[fg8hi5e6j8gfke",
"lmn8o%p99p%o8nml",
"dqgrpl5,,5lprgqd",
"dmsp5#tuut#5psmd",
">vwl#xyzzyx#lwv>",
"pAB5tyCDDCEt5BFp",
"Gl[jxHIDDIHxh[lG",
"%%rc>EJDDJH>cr%%",
"66lrgo@yy@ogrl66",
"rrreKLsMMsL@drrr",
"ooooo,tNNt,ooooo",
"hhhhhhhhhhhhhhhh",
"jjjjjjjjjjjjjjjj"};
