/* XPM */
static char * close_pressed_xpm[] = {
"16 22 164 2",
"  	c None",
". 	c #6D6D6D",
"+ 	c #E2E2E2",
"@ 	c #C5C5C5",
"# 	c #C4C4C4",
"$ 	c #C3C3C3",
"% 	c #B8B2B3",
"& 	c #846263",
"* 	c #602B2D",
"= 	c #511516",
"- 	c #C2C2C2",
"; 	c #998485",
"> 	c #4F1012",
", 	c #551012",
"' 	c #682223",
") 	c #7B3A3B",
"! 	c #7A393A",
"~ 	c #682123",
"{ 	c #540F12",
"] 	c #9A8485",
"^ 	c #4C080A",
"/ 	c #6B1416",
"( 	c #9C3335",
"_ 	c #CC7F81",
": 	c #F3DCDC",
"< 	c #F3D9DA",
"[ 	c #CB7B7C",
"} 	c #9B3134",
"| 	c #6B1415",
"1 	c #C1C1C1",
"2 	c #B7B2B2",
"3 	c #521315",
"4 	c #751416",
"5 	c #AC2225",
"6 	c #B23031",
"7 	c #DF6668",
"8 	c #F1B5B6",
"9 	c #F0B3B3",
"0 	c #DE6364",
"a 	c #B12E30",
"b 	c #AC2224",
"c 	c #C0C0C0",
"d 	c #856465",
"e 	c #621013",
"f 	c #B62023",
"g 	c #B52526",
"h 	c #8B2828",
"i 	c #B23131",
"j 	c #EF6566",
"k 	c #EF6465",
"l 	c #BFBFBF",
"m 	c #743234",
"n 	c #961D1F",
"o 	c #D22325",
"p 	c #E52426",
"q 	c #B52728",
"r 	c #8D2828",
"s 	c #B82C2D",
"t 	c #E52526",
"u 	c #733335",
"v 	c #BEBEBE",
"w 	c #751C1F",
"x 	c #B52426",
"y 	c #E32B2C",
"z 	c #F22E2F",
"A 	c #F83233",
"B 	c #BA2F2F",
"C 	c #8E2A2A",
"D 	c #BA3030",
"E 	c #F83434",
"F 	c #F23030",
"G 	c #E42C2D",
"H 	c #B52527",
"I 	c #832326",
"J 	c #C12C2E",
"K 	c #EF3839",
"L 	c #F93F40",
"M 	c #FC4848",
"N 	c #BB3C3C",
"O 	c #8E2D2D",
"P 	c #BB3D3D",
"Q 	c #FC4A4A",
"R 	c #F94242",
"S 	c #EF3A3B",
"T 	c #C12E30",
"U 	c #832426",
"V 	c #BDBDBD",
"W 	c #A2494B",
"X 	c #C13536",
"Y 	c #F44849",
"Z 	c #FB5354",
"` 	c #BB4343",
" .	c #8E2F2F",
"..	c #BC5050",
"+.	c #BC5151",
"@.	c #8E3030",
"#.	c #BB4444",
"$.	c #FB5757",
"%.	c #F44B4B",
"&.	c #C13839",
"*.	c #A34B4D",
"=.	c #BCBCBC",
"-.	c #B07B7C",
";.	c #B0393A",
">.	c #F25959",
",.	c #D15152",
"'.	c #BC5656",
").	c #FE9898",
"!.	c #FE9999",
"~.	c #BC5757",
"{.	c #D15454",
"].	c #F35C5C",
"^.	c #B13B3D",
"/.	c #B07C7D",
"(.	c #BBBBBB",
"_.	c #C5BDBD",
":.	c #AD4F50",
"<.	c #D25D5E",
"[.	c #F47575",
"}.	c #D26868",
"|.	c #FD9C9C",
"1.	c #FEA7A7",
"2.	c #FEA8A8",
"3.	c #FD9E9E",
"4.	c #D26A6A",
"5.	c #F47878",
"6.	c #D26161",
"7.	c #AF5253",
"8.	c #C4BCBC",
"9.	c #BABABA",
"0.	c #BE9D9D",
"a.	c #B96061",
"b.	c #DC7E7F",
"c.	c #FA9696",
"d.	c #FDA4A4",
"e.	c #FDADAD",
"f.	c #FDAEAE",
"g.	c #FDA6A6",
"h.	c #FA9898",
"i.	c #DD8282",
"j.	c #BB6464",
"k.	c #B9B9B9",
"l.	c #BF9F9F",
"m.	c #BE7373",
"n.	c #D38F8F",
"o.	c #E59F9F",
"p.	c #EEA8A8",
"q.	c #E5A0A0",
"r.	c #D49192",
"s.	c #C07576",
"t.	c #C09F9F",
"u.	c #B8B8B8",
"v.	c #D0C7C7",
"w.	c #B98A8A",
"x.	c #C08383",
"y.	c #CA8C8D",
"z.	c #CA8D8D",
"A.	c #B98A8B",
"B.	c #B7B7B7",
"C.	c #C7C7C7",
"D.	c #D2D2D2",
"E.	c #D6D6D6",
"F.	c #B6B6B6",
"G.	c #B5B5B5",
". . . . . . . . . . . . . . . . ",
"+ + + + + + + + + + + + + + + + ",
"@ @ @ @ @ @ @ @ @ @ @ @ @ @ @ @ ",
"# # # # # # # # # # # # # # # # ",
"$ $ $ $ $ $ $ $ $ $ $ $ $ $ $ $ ",
"$ $ $ $ % & * = = * & % $ $ $ $ ",
"- - - ; > , ' ) ! ~ { > ; - - - ",
"- - ] ^ / ( _ : < [ } | ^ ] - - ",
"1 2 3 4 5 6 7 8 9 0 a b 4 3 2 1 ",
"c d e f g h i j k 6 h g f e d c ",
"l m n o p q r s s r q t o n u l ",
"v w x y z A B C C D E F G H w v ",
"v I J K L M N O O P Q R S T U v ",
"V W X Y Z `  ...+.@.#.$.%.&.*.V ",
"=.-.;.>.,.@.'.).!.~.@.{.].^./.=.",
"(._.:.<.[.}.|.1.2.3.4.5.6.7.8.(.",
"9.9.0.a.b.c.d.e.f.g.h.i.j.0.9.9.",
"k.k.$ l.m.n.o.p.p.q.r.s.t.$ k.k.",
"u.u.u.- v.w.x.y.z.x.A.v.- u.u.u.",
"B.B.B.B.B.C.D.E.E.D.C.B.B.B.B.B.",
"F.F.F.F.F.F.F.F.F.F.F.F.F.F.F.F.",
"G.G.G.G.G.G.G.G.G.G.G.G.G.G.G.G."};
