/* XPM */
static char * hide_pressed_xpm[] = {
"16 22 152 2",
"  	c None",
". 	c #6D6D6D",
"+ 	c #E2E2E2",
"@ 	c #C5C5C5",
"# 	c #C4C4C4",
"$ 	c #C3C3C3",
"% 	c #BBB4B2",
"& 	c #976962",
"* 	c #7D352B",
"= 	c #711E15",
"- 	c #C2C2C2",
"; 	c #A68884",
"> 	c #711C10",
", 	c #761E0E",
"' 	c #873721",
") 	c #914D3B",
"! 	c #914D3C",
"~ 	c #873722",
"{ 	c #A58884",
"] 	c #6E1306",
"^ 	c #872B0C",
"/ 	c #BD6428",
"( 	c #E6A56E",
"_ 	c #F8E3C9",
": 	c #F8E4CD",
"< 	c #E6A772",
"[ 	c #BD652A",
"} 	c #C1C1C1",
"| 	c #BAB3B1",
"1 	c #711C0F",
"2 	c #862A0A",
"3 	c #D36B1B",
"4 	c #F99133",
"5 	c #F8AD65",
"6 	c #FBD9B5",
"7 	c #FBDBB7",
"8 	c #F9AF68",
"9 	c #F99235",
"0 	c #D36C1C",
"a 	c #C0C0C0",
"b 	c #9F6D61",
"c 	c #852509",
"d 	c #C3621A",
"e 	c #FA972F",
"f 	c #FCA23A",
"g 	c #FDB252",
"h 	c #FDC77C",
"i 	c #FDC77D",
"j 	c #FCB253",
"k 	c #BFBFBF",
"l 	c #97422B",
"m 	c #A84915",
"n 	c #F29D38",
"o 	c #FEB144",
"p 	c #FFB64A",
"q 	c #FFBB50",
"r 	c #FFBF59",
"s 	c #FFBF5A",
"t 	c #98432C",
"u 	c #BEBEBE",
"v 	c #A44219",
"w 	c #CD7A2B",
"x 	c #FEB84B",
"y 	c #9D5B2B",
"z 	c #824121",
"A 	c #824221",
"B 	c #824222",
"C 	c #9D5C2B",
"D 	c #B55B23",
"E 	c #E1983D",
"F 	c #FFC358",
"G 	c #9C5F2F",
"H 	c #824323",
"I 	c #824423",
"J 	c #824524",
"K 	c #824424",
"L 	c #9D5F2F",
"M 	c #BDBDBD",
"N 	c #BC7942",
"O 	c #D4933E",
"P 	c #FECB61",
"Q 	c #DBA954",
"R 	c #D2A152",
"S 	c #D1A554",
"T 	c #D1A956",
"U 	c #D1A654",
"V 	c #D2A253",
"W 	c #DCAA54",
"X 	c #FFCB61",
"Y 	c #D3933F",
"Z 	c #BCBCBC",
"` 	c #C4A079",
" .	c #BE8639",
"..	c #FCCE67",
"+.	c #FFD76E",
"@.	c #FEDC71",
"#.	c #FDE273",
"$.	c #FEE674",
"%.	c #FEE774",
"&.	c #FDE373",
"*.	c #FEDD71",
"=.	c #FFD86E",
"-.	c #FCCF67",
";.	c #C5A079",
">.	c #BBBBBB",
",.	c #CAC5BE",
"'.	c #BC8B42",
").	c #D7AD54",
"!.	c #FEDA71",
"~.	c #FEE073",
"{.	c #FFE575",
"].	c #FEE775",
"^.	c #FFE774",
"/.	c #FEE074",
"(.	c #FEDB71",
"_.	c #D7AE55",
":.	c #BC8C42",
"<.	c #BABABA",
"[.	c #C9B79E",
"}.	c #B88D41",
"|.	c #DBB75C",
"1.	c #FCDE73",
"2.	c #FDE375",
"3.	c #FEE474",
"4.	c #FEE574",
"5.	c #FDE374",
"6.	c #FBDD72",
"7.	c #DBB95C",
"8.	c #B98E42",
"9.	c #B9B9B9",
"0.	c #C9B8A0",
"a.	c #BD964C",
"b.	c #D0AD55",
"c.	c #E7C764",
"d.	c #F2D46B",
"e.	c #F3D46B",
"f.	c #E8C865",
"g.	c #D2AF56",
"h.	c #BF984D",
"i.	c #B8B8B8",
"j.	c #D3CEC9",
"k.	c #C2A984",
"l.	c #C5A260",
"m.	c #CEA755",
"n.	c #C6A361",
"o.	c #C2AA84",
"p.	c #B7B7B7",
"q.	c #C7C7C7",
"r.	c #D2D2D2",
"s.	c #D6D6D6",
"t.	c #B6B6B6",
"u.	c #B5B5B5",
". . . . . . . . . . . . . . . . ",
"+ + + + + + + + + + + + + + + + ",
"@ @ @ @ @ @ @ @ @ @ @ @ @ @ @ @ ",
"# # # # # # # # # # # # # # # # ",
"$ $ $ $ $ $ $ $ $ $ $ $ $ $ $ $ ",
"$ $ $ $ % & * = = * & % $ $ $ $ ",
"- - - ; > , ' ) ! ~ , > { - - - ",
"- - ; ] ^ / ( _ : < [ ^ ] { - - ",
"} | 1 2 3 4 5 6 7 8 9 0 2 1 | } ",
"a b c d e f g h i j f e d c b a ",
"k l m n o p q r s q p o n m t k ",
"u v w x y z A B B A z C x w v u ",
"u D E F G H I J J K H L F E D u ",
"M N O P Q R S T T U V W X Y N M ",
"Z `  ...+.@.#.$.%.&.*.=.-. .;.Z ",
">.,.'.).!.~.{.].^.{./.(._.:.,.>.",
"<.@ [.}.|.1.2.3.4.5.6.7.8.[.u <.",
"9.9.$ 0.a.b.c.d.e.f.g.h.0.$ 9.9.",
"i.i.i.- j.k.l.m.m.n.o.j.- i.i.i.",
"p.p.p.p.p.q.r.s.s.r.q.p.p.p.p.p.",
"t.t.t.t.t.t.t.t.t.t.t.t.t.t.t.t.",
"u.u.u.u.u.u.u.u.u.u.u.u.u.u.u.u."};
