/* XPM */
static char * hide_active_xpm[] = {
"16 22 154 2",
"  	c None",
". 	c #6D6D6D",
"+ 	c #E2E2E2",
"@ 	c #C5C5C5",
"# 	c #C4C4C4",
"$ 	c #C3C3C3",
"% 	c #BBB4B2",
"& 	c #976962",
"* 	c #7D352B",
"= 	c #711E15",
"- 	c #C2C2C2",
"; 	c #A68884",
"> 	c #711C10",
", 	c #761E0E",
"' 	c #873721",
") 	c #914D3B",
"! 	c #914D3C",
"~ 	c #873722",
"{ 	c #A58884",
"] 	c #6E1306",
"^ 	c #872B0C",
"/ 	c #BD6428",
"( 	c #E6A56E",
"_ 	c #F8E3C9",
": 	c #F8E4CD",
"< 	c #E6A772",
"[ 	c #BD652A",
"} 	c #C1C1C1",
"| 	c #BAB3B1",
"1 	c #711C0F",
"2 	c #862A0A",
"3 	c #D36B1B",
"4 	c #F99133",
"5 	c #F8AD65",
"6 	c #FBD9B5",
"7 	c #FBDBB7",
"8 	c #F9AF68",
"9 	c #F99235",
"0 	c #D36C1C",
"a 	c #C0C0C0",
"b 	c #9F6D61",
"c 	c #852509",
"d 	c #C3621A",
"e 	c #FA972F",
"f 	c #FCA23A",
"g 	c #FDB252",
"h 	c #FDC77C",
"i 	c #FDC77D",
"j 	c #FCB253",
"k 	c #BFBFBF",
"l 	c #97422B",
"m 	c #A84915",
"n 	c #F29D38",
"o 	c #FEB144",
"p 	c #FFB64A",
"q 	c #FFBB50",
"r 	c #FFBF59",
"s 	c #FFBF5A",
"t 	c #98432C",
"u 	c #BEBEBE",
"v 	c #A44219",
"w 	c #CD7A2B",
"x 	c #FEB84B",
"y 	c #FFBE53",
"z 	c #FFC358",
"A 	c #FFC65B",
"B 	c #FFC85E",
"C 	c #FFC75E",
"D 	c #FFC55C",
"E 	c #FFBF52",
"F 	c #B55B23",
"G 	c #E1983D",
"H 	c #FFC95F",
"I 	c #FFCD63",
"J 	c #FED166",
"K 	c #FED569",
"L 	c #FED267",
"M 	c #FFCE63",
"N 	c #BDBDBD",
"O 	c #BC7942",
"P 	c #D4933E",
"Q 	c #FECB61",
"R 	c #FED168",
"S 	c #FED66C",
"T 	c #FEDB6F",
"U 	c #FEE171",
"V 	c #FDE071",
"W 	c #FEDC6F",
"X 	c #FFD76C",
"Y 	c #FFD268",
"Z 	c #FFCB61",
"` 	c #D3933F",
" .	c #BCBCBC",
"..	c #C4A079",
"+.	c #BE8639",
"@.	c #FCCE67",
"#.	c #FFD76E",
"$.	c #FEDC71",
"%.	c #FDE273",
"&.	c #FEE674",
"*.	c #FEE774",
"=.	c #FDE373",
"-.	c #FEDD71",
";.	c #FFD86E",
">.	c #FCCF67",
",.	c #C5A079",
"'.	c #BBBBBB",
").	c #CAC5BE",
"!.	c #BC8B42",
"~.	c #D7AD54",
"{.	c #FEDA71",
"].	c #FEE073",
"^.	c #FFE575",
"/.	c #FEE775",
"(.	c #FFE774",
"_.	c #FEE074",
":.	c #FEDB71",
"<.	c #D7AE55",
"[.	c #BC8C42",
"}.	c #BABABA",
"|.	c #C9B79E",
"1.	c #B88D41",
"2.	c #DBB75C",
"3.	c #FCDE73",
"4.	c #FDE375",
"5.	c #FEE474",
"6.	c #FEE574",
"7.	c #FDE374",
"8.	c #FBDD72",
"9.	c #DBB95C",
"0.	c #B98E42",
"a.	c #B9B9B9",
"b.	c #C9B8A0",
"c.	c #BD964C",
"d.	c #D0AD55",
"e.	c #E7C764",
"f.	c #F2D46B",
"g.	c #F3D46B",
"h.	c #E8C865",
"i.	c #D2AF56",
"j.	c #BF984D",
"k.	c #B8B8B8",
"l.	c #D3CEC9",
"m.	c #C2A984",
"n.	c #C5A260",
"o.	c #CEA755",
"p.	c #C6A361",
"q.	c #C2AA84",
"r.	c #B7B7B7",
"s.	c #C7C7C7",
"t.	c #D2D2D2",
"u.	c #D6D6D6",
"v.	c #B6B6B6",
"w.	c #B5B5B5",
". . . . . . . . . . . . . . . . ",
"+ + + + + + + + + + + + + + + + ",
"@ @ @ @ @ @ @ @ @ @ @ @ @ @ @ @ ",
"# # # # # # # # # # # # # # # # ",
"$ $ $ $ $ $ $ $ $ $ $ $ $ $ $ $ ",
"$ $ $ $ % & * = = * & % $ $ $ $ ",
"- - - ; > , ' ) ! ~ , > { - - - ",
"- - ; ] ^ / ( _ : < [ ^ ] { - - ",
"} | 1 2 3 4 5 6 7 8 9 0 2 1 | } ",
"a b c d e f g h i j f e d c b a ",
"k l m n o p q r s q p o n m t k ",
"u v w x y z A B C D z E x w v u ",
"u F G z H I J K K L M H z G F u ",
"N O P Q R S T U V W X Y Z ` O N ",
" ...+.@.#.$.%.&.*.=.-.;.>.+.,. .",
"'.).!.~.{.].^./.(.^._.:.<.[.).'.",
"}.@ |.1.2.3.4.5.6.7.8.9.0.|.u }.",
"a.a.$ b.c.d.e.f.g.h.i.j.b.$ a.a.",
"k.k.k.- l.m.n.o.o.p.q.l.- k.k.k.",
"r.r.r.r.r.s.t.u.u.t.s.r.r.r.r.r.",
"v.v.v.v.v.v.v.v.v.v.v.v.v.v.v.v.",
"w.w.w.w.w.w.w.w.w.w.w.w.w.w.w.w."};
