/* XPM */
static char * maximize_pressed_xpm[] = {
"16 22 179 2",
"  	c None",
". 	c #6D6D6D",
"+ 	c #E2E2E2",
"@ 	c #C5C5C5",
"# 	c #C4C4C4",
"$ 	c #C3C3C3",
"% 	c #B3B5B2",
"& 	c #677362",
"* 	c #33472D",
"= 	c #213819",
"- 	c #213818",
"; 	c #33462C",
"> 	c #667362",
", 	c #B2B4B1",
"' 	c #C2C2C2",
") 	c #878F84",
"! 	c #1A3311",
"~ 	c #244218",
"{ 	c #47643A",
"] 	c #667C5C",
"^ 	c #617956",
"/ 	c #405F32",
"( 	c #203F14",
"_ 	c #1A3210",
": 	c #878E84",
"< 	c #112D07",
"[ 	c #244A13",
"} 	c #497132",
"| 	c #8EAC7D",
"1 	c #DBE7D2",
"2 	c #CFDFC5",
"3 	c #7DA068",
"4 	c #426C29",
"5 	c #224810",
"6 	c #112D06",
"7 	c #858D82",
"8 	c #C1C1C1",
"9 	c #22490F",
"0 	c #3F7420",
"a 	c #5A9237",
"b 	c #86B16B",
"c 	c #647755",
"d 	c #607550",
"e 	c #78A85A",
"f 	c #548E30",
"g 	c #3E731F",
"h 	c #21490F",
"i 	c #193210",
"j 	c #B0B2AF",
"k 	c #C0C0C0",
"l 	c #6C8164",
"m 	c #1D480D",
"n 	c #407522",
"o 	c #56972E",
"p 	c #5D9F35",
"q 	c #6FAC49",
"r 	c #384F27",
"s 	c #374F25",
"t 	c #69A842",
"u 	c #5C9E33",
"v 	c #6C7F65",
"w 	c #BFBFBF",
"x 	c #3F6731",
"y 	c #366B1C",
"z 	c #5E9F35",
"A 	c #67AC3B",
"B 	c #6CB13F",
"C 	c #71B643",
"D 	c #344F1F",
"E 	c #344E1F",
"F 	c #70B542",
"G 	c #6BB03E",
"H 	c #66AB3B",
"I 	c #356A1C",
"J 	c #3E6531",
"K 	c #BEBEBE",
"L 	c #366921",
"M 	c #549031",
"N 	c #70B443",
"O 	c #406226",
"P 	c #355020",
"Q 	c #365020",
"R 	c #375121",
"S 	c #365120",
"T 	c #426727",
"U 	c #538F30",
"V 	c #346720",
"W 	c #487A2D",
"X 	c #64A03C",
"Y 	c #80C14E",
"Z 	c #456629",
"` 	c #395222",
" .	c #3B5323",
"..	c #3C5424",
"+.	c #385222",
"@.	c #486B2C",
"#.	c #7FC04E",
"$.	c #639F3C",
"%.	c #477A2D",
"&.	c #BDBDBD",
"*.	c #6B9451",
"=.	c #69A141",
"-.	c #8DC957",
";.	c #97D05D",
">.	c #A3D763",
",.	c #AFDD6B",
"'.	c #415628",
").	c #415627",
"!.	c #AEDC6A",
"~.	c #A0D662",
"{.	c #95D05C",
"].	c #8BC956",
"^.	c #68A041",
"/.	c #69934F",
"(.	c #BCBCBC",
"_.	c #94AD84",
":.	c #61923D",
"<.	c #94CC5D",
"[.	c #A2D665",
"}.	c #AFDD6D",
"|.	c #BCE376",
"1.	c #43572A",
"2.	c #BBE275",
"3.	c #ADDC6B",
"4.	c #A0D664",
"5.	c #92CB5C",
"6.	c #5F913C",
"7.	c #93AC82",
"8.	c #BBBBBB",
"9.	c #C1C5BF",
"0.	c #6C9748",
"a.	c #82B152",
"b.	c #A8D86A",
"c.	c #B5DF72",
"d.	c #C1E57C",
"e.	c #546A35",
"f.	c #C0E47A",
"g.	c #B4DF71",
"h.	c #A6D769",
"i.	c #80B050",
"j.	c #6A9647",
"k.	c #BABABA",
"l.	c #B6B6B6",
"m.	c #B0BFA6",
"n.	c #749D48",
"o.	c #94BD5D",
"p.	c #B2DA72",
"q.	c #BEE27A",
"r.	c #C5E580",
"s.	c #C4E57F",
"t.	c #BDE279",
"u.	c #B0DA71",
"v.	c #91BB5C",
"w.	c #719C47",
"x.	c #AFBEA5",
"y.	c #B9B9B9",
"z.	c #B2C1A8",
"A.	c #7FA554",
"B.	c #90B45C",
"C.	c #A4C669",
"D.	c #AFD071",
"E.	c #AED071",
"F.	c #A2C668",
"G.	c #8FB35B",
"H.	c #7DA353",
"I.	c #B1C0A7",
"J.	c #B8B8B8",
"K.	c #CDD1CB",
"L.	c #9FB58D",
"M.	c #8CAC68",
"N.	c #8BAD5C",
"O.	c #8AAD5C",
"P.	c #8CAC69",
"Q.	c #9EB58D",
"R.	c #B7B7B7",
"S.	c #C7C7C7",
"T.	c #D2D2D2",
"U.	c #D6D6D6",
"V.	c #B5B5B5",
". . . . . . . . . . . . . . . . ",
"+ + + + + + + + + + + + + + + + ",
"@ @ @ @ @ @ @ @ @ @ @ @ @ @ @ @ ",
"# # # # # # # # # # # # # # # # ",
"$ $ $ $ $ $ $ $ $ $ $ $ $ $ $ $ ",
"$ $ $ $ % & * = - ; > , $ $ $ $ ",
"' ' ' ) ! ~ { ] ^ / ( _ : ' ' ' ",
"' ' ) < [ } | 1 2 3 4 5 6 7 ' ' ",
"8 , ! 9 0 a b c d e f g h i j 8 ",
"k l m n o p q r s t u o n m v k ",
"w x y z A B C D E F G H p I J w ",
"K L M N O P Q R R S P T N U V K ",
"K W X Y Z `  ..... .+.@.#.$.%.K ",
"&.*.=.-.;.>.,.'.).!.~.{.].^./.&.",
"(._.:.<.[.}.|.1.1.2.3.4.5.6.7.(.",
"8.9.0.a.b.c.d.e.e.f.g.h.i.j.9.8.",
"k.l.m.n.o.p.q.r.s.t.u.v.w.x.l.k.",
"y.y.' z.A.B.C.D.E.F.G.H.I.8 y.y.",
"J.J.J.K K.L.M.N.O.P.Q.K.k J.J.J.",
"R.R.R.R.R.S.T.U.U.T.S.R.R.R.R.R.",
"l.l.l.l.l.l.l.l.l.l.l.l.l.l.l.l.",
"V.V.V.V.V.V.V.V.V.V.V.V.V.V.V.V."};
