/* XPM */
static char * maximize_active_xpm[] = {
"16 22 185 2",
"  	c None",
". 	c #6D6D6D",
"+ 	c #E2E2E2",
"@ 	c #C5C5C5",
"# 	c #C4C4C4",
"$ 	c #C3C3C3",
"% 	c #B3B5B2",
"& 	c #677362",
"* 	c #33472D",
"= 	c #213819",
"- 	c #213818",
"; 	c #33462C",
"> 	c #667362",
", 	c #B2B4B1",
"' 	c #C2C2C2",
") 	c #878F84",
"! 	c #1A3311",
"~ 	c #244218",
"{ 	c #47643A",
"] 	c #667C5C",
"^ 	c #617956",
"/ 	c #405F32",
"( 	c #203F14",
"_ 	c #1A3210",
": 	c #878E84",
"< 	c #112D07",
"[ 	c #244A13",
"} 	c #497132",
"| 	c #8EAC7D",
"1 	c #DBE7D2",
"2 	c #CFDFC5",
"3 	c #7DA068",
"4 	c #426C29",
"5 	c #224810",
"6 	c #112D06",
"7 	c #858D82",
"8 	c #C1C1C1",
"9 	c #22490F",
"0 	c #3F7420",
"a 	c #5A9237",
"b 	c #86B16B",
"c 	c #C3DAB3",
"d 	c #B8D3A7",
"e 	c #78A85A",
"f 	c #548E30",
"g 	c #3E731F",
"h 	c #21490F",
"i 	c #193210",
"j 	c #B0B2AF",
"k 	c #C0C0C0",
"l 	c #6C8164",
"m 	c #1D480D",
"n 	c #407522",
"o 	c #56972E",
"p 	c #5D9F35",
"q 	c #6FAC49",
"r 	c #8DBE6E",
"s 	c #88BB68",
"t 	c #69A842",
"u 	c #5C9E33",
"v 	c #6C7F65",
"w 	c #BFBFBF",
"x 	c #3F6731",
"y 	c #366B1C",
"z 	c #5E9F35",
"A 	c #67AC3B",
"B 	c #6CB13F",
"C 	c #71B643",
"D 	c #78BA4A",
"E 	c #77B949",
"F 	c #70B542",
"G 	c #6BB03E",
"H 	c #66AB3B",
"I 	c #356A1C",
"J 	c #3E6531",
"K 	c #BEBEBE",
"L 	c #366921",
"M 	c #549031",
"N 	c #70B443",
"O 	c #78BB48",
"P 	c #7FC04B",
"Q 	c #84C44E",
"R 	c #89C851",
"S 	c #89C750",
"T 	c #83C44E",
"U 	c #7EC04B",
"V 	c #77BB47",
"W 	c #538F30",
"X 	c #346720",
"Y 	c #487A2D",
"Z 	c #64A03C",
"` 	c #80C14E",
" .	c #88C753",
"..	c #91CD57",
"+.	c #9CD25D",
"@.	c #A4D662",
"#.	c #A3D661",
"$.	c #9AD25C",
"%.	c #8FCC57",
"&.	c #87C752",
"*.	c #7FC04E",
"=.	c #639F3C",
"-.	c #477A2D",
";.	c #BDBDBD",
">.	c #6B9451",
",.	c #69A141",
"'.	c #8DC957",
").	c #97D05D",
"!.	c #A3D763",
"~.	c #AFDD6B",
"{.	c #BAE173",
"].	c #B9E172",
"^.	c #AEDC6A",
"/.	c #A0D662",
"(.	c #95D05C",
"_.	c #8BC956",
":.	c #68A041",
"<.	c #69934F",
"[.	c #BCBCBC",
"}.	c #94AD84",
"|.	c #61923D",
"1.	c #94CC5D",
"2.	c #A2D665",
"3.	c #AFDD6D",
"4.	c #BCE376",
"5.	c #C6E77E",
"6.	c #C5E77E",
"7.	c #BBE275",
"8.	c #ADDC6B",
"9.	c #A0D664",
"0.	c #92CB5C",
"a.	c #5F913C",
"b.	c #93AC82",
"c.	c #BBBBBB",
"d.	c #C1C5BF",
"e.	c #6C9748",
"f.	c #82B152",
"g.	c #A8D86A",
"h.	c #B5DF72",
"i.	c #C1E57C",
"j.	c #C9E982",
"k.	c #C8E981",
"l.	c #C0E47A",
"m.	c #B4DF71",
"n.	c #A6D769",
"o.	c #80B050",
"p.	c #6A9647",
"q.	c #BABABA",
"r.	c #B6B6B6",
"s.	c #B0BFA6",
"t.	c #749D48",
"u.	c #94BD5D",
"v.	c #B2DA72",
"w.	c #BEE27A",
"x.	c #C5E580",
"y.	c #C4E57F",
"z.	c #BDE279",
"A.	c #B0DA71",
"B.	c #91BB5C",
"C.	c #719C47",
"D.	c #AFBEA5",
"E.	c #B9B9B9",
"F.	c #B2C1A8",
"G.	c #7FA554",
"H.	c #90B45C",
"I.	c #A4C669",
"J.	c #AFD071",
"K.	c #AED071",
"L.	c #A2C668",
"M.	c #8FB35B",
"N.	c #7DA353",
"O.	c #B1C0A7",
"P.	c #B8B8B8",
"Q.	c #CDD1CB",
"R.	c #9FB58D",
"S.	c #8CAC68",
"T.	c #8BAD5C",
"U.	c #8AAD5C",
"V.	c #8CAC69",
"W.	c #9EB58D",
"X.	c #B7B7B7",
"Y.	c #C7C7C7",
"Z.	c #D2D2D2",
"`.	c #D6D6D6",
" +	c #B5B5B5",
". . . . . . . . . . . . . . . . ",
"+ + + + + + + + + + + + + + + + ",
"@ @ @ @ @ @ @ @ @ @ @ @ @ @ @ @ ",
"# # # # # # # # # # # # # # # # ",
"$ $ $ $ $ $ $ $ $ $ $ $ $ $ $ $ ",
"$ $ $ $ % & * = - ; > , $ $ $ $ ",
"' ' ' ) ! ~ { ] ^ / ( _ : ' ' ' ",
"' ' ) < [ } | 1 2 3 4 5 6 7 ' ' ",
"8 , ! 9 0 a b c d e f g h i j 8 ",
"k l m n o p q r s t u o n m v k ",
"w x y z A B C D E F G H p I J w ",
"K L M N O P Q R S T U V N W X K ",
"K Y Z `  ...+.@.#.$.%.&.*.=.-.K ",
";.>.,.'.).!.~.{.].^./.(._.:.<.;.",
"[.}.|.1.2.3.4.5.6.7.8.9.0.a.b.[.",
"c.d.e.f.g.h.i.j.k.l.m.n.o.p.d.c.",
"q.r.s.t.u.v.w.x.y.z.A.B.C.D.r.q.",
"E.E.' F.G.H.I.J.K.L.M.N.O.8 E.E.",
"P.P.P.K Q.R.S.T.U.V.W.Q.k P.P.P.",
"X.X.X.X.X.Y.Z.`.`.Z.Y.X.X.X.X.X.",
"r.r.r.r.r.r.r.r.r.r.r.r.r.r.r.r.",
" + + + + + + + + + + + + + + + +"};
