/* XPM */
static char * menu_inactive_xpm[] = {
"20 22 72 1",
" 	c None",
".	c #6D6D6D",
"+	c #E2E2E2",
"@	c #C5C5C5",
"#	c #C4C4C4",
"$	c #C3C3C3",
"%	c #C2C2C2",
"&	c #BBBBBB",
"*	c #9E9E9E",
"=	c #999999",
"-	c #8E8E8E",
";	c #848484",
">	c #7F7F7F",
",	c #808080",
"'	c #838383",
")	c #868686",
"!	c #828282",
"~	c #7C7C7C",
"{	c #7B7B7B",
"]	c #898989",
"^	c #939393",
"/	c #9A9A9A",
"(	c #BDBDBD",
"_	c #979797",
":	c #919191",
"<	c #A6A6A6",
"[	c #D7D7D7",
"}	c #DBDBDB",
"|	c #A7A7A7",
"1	c #858585",
"2	c #BCBCBC",
"3	c #D0D0D0",
"4	c #D4D4D4",
"5	c #D9D9D9",
"6	c #D2D2D2",
"7	c #C7C7C7",
"8	c #969696",
"9	c #C6C6C6",
"0	c #C8C8C8",
"a	c #CECECE",
"b	c #CDCDCD",
"c	c #B4B4B4",
"d	c #BABABA",
"e	c #BEBEBE",
"f	c #C1C1C1",
"g	c #C0C0C0",
"h	c #888888",
"i	c #C9C9C9",
"j	c #ABABAB",
"k	c #A2A2A2",
"l	c #CBCBCB",
"m	c #D1D1D1",
"n	c #B2B2B2",
"o	c #D6D6D6",
"p	c #DCDCDC",
"q	c #DDDDDD",
"r	c #B1B1B1",
"s	c #B8B8B8",
"t	c #C0C0BF",
"u	c #B0B0B0",
"v	c #A8A8A8",
"w	c #9D9D9D",
"x	c #8F8F8F",
"y	c #909090",
"z	c #949494",
"A	c #989898",
"B	c #B9B9B9",
"C	c #D5D5D5",
"D	c #CACACA",
"E	c #B7B7B7",
"F	c #B6B6B6",
"G	c #B5B5B5",
"....................",
"++++++++++++++++++++",
"@@@@@@@@@@@@@@@@@@@@",
"####################",
"$$$$$$$$$$$$$$$$$$$$",
"$$$$$$$$$$$$$$$$$$$$",
"%%%%%%%%%%%%%%%%%%%%",
"%&*=-;>,')!>~{,]^/(%",
"&_:<$[}}}}}}}}[$|:_&",
"<12@345}}55555}67(1<",
"_89970abbaaaaab9@#8_",
"-c(&d2effeeeeef(egc-",
"h#70i0i77iiiii779@#h",
"jklbabmmmmmmmmmablkj",
"n|3op}qqqqqqqqqpo3|r",
"snkn74[466664[47nkrg",
"dtuvw^xyzAAzyx^wvutd",
"BB7ibmCC6336Co6aD0BB",
"ssssssssssssssssssss",
"EEEEEEEEEEEEEEEEEEEE",
"FFFFFFFFFFFFFFFFFFFF",
"GGGGGGGGGGGGGGGGGGGG"};
