/* XPM */
static char * menu_pressed_xpm[] = {
"20 22 129 2",
"  	c None",
". 	c #6D6D6D",
"+ 	c #E2E2E2",
"@ 	c #C5C5C5",
"# 	c #C4C4C4",
"$ 	c #C3C3C3",
"% 	c #C2C2C2",
"& 	c #B8B8B8",
"* 	c #828AA8",
"= 	c #4D5367",
"- 	c #232C41",
"; 	c #0C132C",
"> 	c #05112B",
", 	c #000C2A",
"' 	c #000A27",
") 	c #000A26",
"! 	c #05122E",
"~ 	c #2D364F",
"{ 	c #434C63",
"] 	c #60657D",
"^ 	c #858BA8",
"/ 	c #BABABA",
"( 	c #C1C1C1",
"_ 	c #7C7C7C",
": 	c #0D549D",
"< 	c #669ACE",
"[ 	c #87B4DB",
"} 	c #93B8DD",
"| 	c #A2C3E0",
"1 	c #A7C8E1",
"2 	c #A7C7E4",
"3 	c #AAC7E6",
"4 	c #A9C7E7",
"5 	c #A9C7E4",
"6 	c #A8C8E2",
"7 	c #A5C4E0",
"8 	c #A2BFDB",
"9 	c #93B4D2",
"0 	c #7A99BA",
"a 	c #747474",
"b 	c #A4A4A4",
"c 	c #00478A",
"d 	c #5A94CF",
"e 	c #99BDE2",
"f 	c #9EBBE4",
"g 	c #A1BDE2",
"h 	c #9FBEE4",
"i 	c #9FBFE0",
"j 	c #9CBDE5",
"k 	c #9FBFE4",
"l 	c #A1BEE2",
"m 	c #9FBBE4",
"n 	c #A8A8A8",
"o 	c #004594",
"p 	c #256BC2",
"q 	c #6A9ED3",
"r 	c #7FAFDC",
"s 	c #80B0E1",
"t 	c #83B7DC",
"u 	c #86B2DB",
"v 	c #85B1DE",
"w 	c #81ADDA",
"x 	c #83B3E0",
"y 	c #004A9E",
"z 	c #3F7FC8",
"A 	c #5088CD",
"B 	c #5391D0",
"C 	c #5494D5",
"D 	c #5395D8",
"E 	c #5594DA",
"F 	c #579BD4",
"G 	c #578FD4",
"H 	c #2864A1",
"I 	c #5498D1",
"J 	c #649ED9",
"K 	c #65A3E2",
"L 	c #69A9EA",
"M 	c #6CACED",
"N 	c #69A9F2",
"O 	c #6DABEA",
"P 	c #6EAAE7",
"Q 	c #456286",
"R 	c #5F99D4",
"S 	c #6EA2E3",
"T 	c #7BB7F4",
"U 	c #8DCAFF",
"V 	c #99CBFF",
"W 	c #93C8FF",
"X 	c #96CAFF",
"Y 	c #96CFFF",
"Z 	c #B0B0B0",
"` 	c #4C749D",
" .	c #73B3F4",
"..	c #89C8FF",
"+.	c #AFD0FF",
"@.	c #BFDEFF",
"#.	c #CBE3FF",
"$.	c #C1DEFF",
"%.	c #C3E0FF",
"&.	c #6B7378",
"*.	c #CECECD",
"=.	c #A1A1A1",
"-.	c #587698",
";.	c #71A9E2",
">.	c #BBDEFF",
",.	c #E3F3FF",
"'.	c #E3F6FF",
").	c #DDF1FF",
"!.	c #E3F5FF",
"~.	c #E1F1FF",
"{.	c #6A7078",
"].	c #D3D3D3",
"^.	c #CBCBCB",
"/.	c #838383",
"(.	c #656565",
"_.	c #4A4A4A",
":.	c #414141",
"<.	c #434343",
"[.	c #434242",
"}.	c #535352",
"|.	c #737373",
"1.	c #7B7B7B",
"2.	c #B9B9B9",
"3.	c #D1D1D1",
"4.	c #D8D8D8",
"5.	c #DADADA",
"6.	c #B7B7B7",
"7.	c #B6B6B6",
"8.	c #B5B5B5",
". . . . . . . . . . . . . . . . . . . . ",
"+ + + + + + + + + + + + + + + + + + + + ",
"@ @ @ @ @ @ @ @ @ @ @ @ @ @ @ @ @ @ @ @ ",
"# # # # # # # # # # # # # # # # # # # # ",
"$ $ $ $ $ $ $ $ $ $ $ $ $ $ $ $ $ $ $ $ ",
"$ $ $ $ $ $ $ $ $ $ $ $ $ $ $ $ $ $ $ $ ",
"% % % % % % % % % % % % % % % % % % % % ",
"% % & * = - ; > , ' ) , ! ~ { ] ^ / % % ",
"( _ : < [ } | 1 2 3 4 5 6 7 8 9 0 a _ ( ",
"b c d e f g h i i j j i i k l m e d c n ",
"o p q r s t u v w x x w v u t s r q p o ",
"y z A B C D E F G C C G F E D C B A z y ",
"H I J K L M N O P N N P O N M L K J I H ",
"Q R S T U V W V X Y Y X V W V U T S R Q ",
"Z `  ...+.@.#.#.$.%.%.$.#.#.@.+... .` &.",
"*.=.-.;.>.,.'.).!.~.~.!.).'.,.>.;.-.{.].",
"/ ^.& /.(._.:.<.<.<.<.<.<.<.[.}.|.1.^./ ",
"2.2.% 3.4.5.5.5.5.5.5.5.5.5.5.4.3.% 2.2.",
"& & & & & & & & & & & & & & & & & & & & ",
"6.6.6.6.6.6.6.6.6.6.6.6.6.6.6.6.6.6.6.6.",
"7.7.7.7.7.7.7.7.7.7.7.7.7.7.7.7.7.7.7.7.",
"8.8.8.8.8.8.8.8.8.8.8.8.8.8.8.8.8.8.8.8."};
