/* XPM */
static char * menu_active_xpm[] = {
"20 22 64 1",
" 	c None",
".	c #6D6D6D",
"+	c #E2E2E2",
"@	c #C5C5C5",
"#	c #C4C4C4",
"$	c #C3C3C3",
"%	c #C2C2C2",
"&	c #989898",
"*	c #676767",
"=	c #585858",
"-	c #565656",
";	c #C1C1C1",
">	c #7C7C7C",
",	c #595959",
"'	c #A3A3A3",
")	c #D1D1D1",
"!	c #DCDCDC",
"~	c #DFDFDF",
"{	c #E0E0E0",
"]	c #E1E1E1",
"^	c #DDDDDD",
"/	c #D2D2D2",
"(	c #A4A4A4",
"_	c #525252",
":	c #BCBCBC",
"<	c #D3D3D3",
"[	c #D7D7D7",
"}	c #DBDBDB",
"|	c #E3E3E3",
"1	c #D8D8D8",
"2	c #BDBDBD",
"3	c #636363",
"4	c #868686",
"5	c #C9C9C9",
"6	c #CCCCCC",
"7	c #CFCFCF",
"8	c #C6C6C6",
"9	c #878787",
"0	c #646464",
"a	c #AEAEAE",
"b	c #BEBEBE",
"c	c #BFBFBF",
"d	c #C0C0C0",
"e	c #696969",
"f	c #B9B9B9",
"g	c #838383",
"h	c #A9A9A9",
"i	c #D9D9D9",
"j	c #B4B4B4",
"k	c #828282",
"l	c #F2F2F2",
"m	c #A0A0A0",
"n	c #DEDEDE",
"o	c #E4E4E4",
"p	c #BABABA",
"q	c #CBCBCB",
"r	c #B7B7B7",
"s	c #8B8B8B",
"t	c #7B7B7B",
"u	c #787878",
"v	c #DADADA",
"w	c #B8B8B8",
"x	c #B6B6B6",
"y	c #B5B5B5",
"....................",
"++++++++++++++++++++",
"@@@@@@@@@@@@@@@@@@@@",
"####################",
"$$$$$$$$$$$$$$$$$$$$",
"$$$$$$$$$$$$$$$$$$$$",
"%%%%%%%%%%%%%%%%%%%%",
"%%&*=----------=*&%%",
";>,')!~{]++]]~^/(,>;",
"&_:<[}~]||||]~!1<2_&",
"34$@567)<<<<)7658$93",
"0a222bcccdddccbbbba0",
"ef5555555555555555fe",
"ghiiiiiiiiiiiiiiiihg",
"jk+llllllllllllll+kj",
"#mk2noooooooooon2km#",
"pqrstuuuuuuuuuutsrqp",
"ff%)1vvvvvvvvvv1)%ff",
"wwwwwwwwwwwwwwwwwwww",
"rrrrrrrrrrrrrrrrrrrr",
"xxxxxxxxxxxxxxxxxxxx",
"yyyyyyyyyyyyyyyyyyyy"};
