/* XPM */
static char * top_right_inactive_xpm[] = {
"10 22 27 1",
" 	c None",
".	c #6D6D6D",
"+	c #E2E2E2",
"@	c #BBBBBB",
"#	c #949494",
"$	c #C5C5C5",
"%	c #C7C7C7",
"&	c #CECECE",
"*	c #D1CFD0",
"=	c #606060",
"-	c #C4C4C4",
";	c #C9C9C9",
">	c #C3C3C3",
",	c #C0BBBF",
"'	c #C2C2C2",
")	c #C1C1C1",
"!	c #C0C0C0",
"~	c #BFBFBF",
"{	c #BEBEBE",
"]	c #BDBDBD",
"^	c #BCBCBC",
"/	c #BABABA",
"(	c #B9B9B9",
"_	c #B8B8B8",
":	c #B7B7B7",
"<	c #B6B6B6",
"[	c #B5B5B5",
".......   ",
"++++++@#. ",
"$$$$$%&*#=",
"-------;@=",
">>>>>>>>,.",
">>>>>>>>$.",
"'''''''''.",
"'''''''''.",
"))))))))).",
"!!!!!!!!!.",
"~~~~~~~~~.",
"{{{{{{{{{.",
"{{{{{{{{{.",
"]]]]]]]]].",
"^^^^^^^^^.",
"@@@@@@@@@.",
"/////////.",
"(((((((((.",
"_________.",
":::::::::.",
"<<<<<<<<<.",
"[[[[[[[[[."};
